<?xml version="1.0" encoding="utf-8"?>
<!-- Generator: Adobe Illustrator 21.0.2, SVG Export Plug-In . SVG Version: 6.00 Build 0)  -->
<svg version="1.1" id="Calque_1" xmlns="http://www.w3.org/2000/svg" xmlns:xlink="http://www.w3.org/1999/xlink" x="0px" y="0px"
	 viewBox="0 0 841.9 595.3" style="enable-background:new 0 0 841.9 595.3;" xml:space="preserve">
<style type="text/css">
	.st0{fill:#12B0A0;stroke:#030304;stroke-miterlimit:10;}
	.st1{fill:#FFFFFF;}
</style>
<g>
	<g>
		<path class="st0" d="M576.9,326.6c27.1-72.6-10-153.7-82.6-180.8s-153.7,10-180.8,82.6s10,153.7,82.6,180.8
			C468.7,436.3,549.8,399.2,576.9,326.6z M289.2,219.4c32.1-86,128.2-129.9,214.2-97.8s129.9,128.2,97.8,214.2S473,465.7,387,433.6
			S257.1,305.4,289.2,219.4z"/>
	</g>
	<g>
		<path class="st1" d="M453.3,128.7v0.6l-5-0.2v-0.6l1.6-0.3c0-0.3,0-0.6,0-0.9s0-0.6,0-0.9l0.1-4.4l-1.1,0.1v-0.6l2.8-0.6l0.2,0.1
			l-0.1,1.8l-0.1,3.7c0,0.3,0,0.6,0,0.9s0,0.6,0,0.9L453.3,128.7z"/>
		<path class="st1" d="M525.7,150.5l-0.8,1.3l-4.7-2.8l0.5-0.9l2.4-0.6c0.8-0.2,1.5-0.5,1.9-0.7c0.5-0.3,0.9-0.7,1.2-1.1
			c0.3-0.4,0.4-0.8,0.3-1.2c-0.1-0.4-0.3-0.7-0.7-0.9c0,0-0.1,0-0.1-0.1c0,0-0.1,0-0.1-0.1l-0.6,0.7c-0.3,0.3-0.5,0.5-0.7,0.5
			s-0.4,0-0.6-0.1c-0.1-0.1-0.3-0.2-0.3-0.4c-0.1-0.1-0.1-0.3-0.1-0.5c0.2-0.3,0.4-0.5,0.7-0.7c0.3-0.1,0.6-0.2,0.9-0.3
			c0.3,0,0.6,0,1,0.1c0.3,0.1,0.7,0.2,1,0.4c0.4,0.2,0.7,0.5,0.9,0.8c0.2,0.3,0.4,0.5,0.4,0.8c0.1,0.3,0.1,0.5,0,0.8
			c-0.1,0.3-0.1,0.5-0.3,0.7c-0.2,0.3-0.4,0.6-0.7,0.7c-0.3,0.2-0.6,0.3-0.9,0.5c-0.4,0.1-0.8,0.2-1.2,0.3c-0.5,0.1-1,0.2-1.6,0.4
			l-1.2,0.3L525.7,150.5z"/>
		<path class="st1" d="M580.4,199.3c-0.3,0.1-0.6,0.1-0.7,0.1c-0.1,0-0.3-0.2-0.4-0.3c-0.2-0.3-0.2-0.6,0-0.9
			c0.3-0.2,0.6-0.2,0.9-0.2s0.6,0.1,0.8,0.2c0.3,0.1,0.5,0.3,0.7,0.5s0.4,0.5,0.6,0.7c0.2,0.4,0.4,0.7,0.4,1.1
			c0.1,0.3,0.1,0.7,0.1,1s-0.1,0.5-0.3,0.8c-0.2,0.2-0.4,0.4-0.6,0.6c-0.4,0.3-0.9,0.3-1.3,0.2c-0.4-0.1-0.9-0.4-1.3-0.8
			c0.2,0.7,0.3,1.2,0.2,1.7s-0.5,0.9-1,1.2c-0.3,0.2-0.6,0.3-0.9,0.3s-0.6,0-0.9-0.1s-0.6-0.3-0.9-0.6s-0.6-0.6-0.8-1.1
			c-0.2-0.3-0.3-0.7-0.4-1c-0.1-0.3-0.1-0.6-0.1-0.9s0.1-0.6,0.3-0.8c0.2-0.2,0.4-0.4,0.6-0.6c0.2,0,0.4,0,0.5,0.1
			c0.1,0.1,0.2,0.2,0.3,0.3c0.1,0.2,0.1,0.4,0.1,0.6s-0.2,0.4-0.5,0.7l-0.7,0.5c0,0.1,0.1,0.3,0.2,0.4c0.3,0.5,0.6,0.8,1.1,0.9
			c0.4,0.1,0.9,0,1.4-0.3c0.4-0.2,0.7-0.6,0.8-0.9c0.1-0.4,0.1-0.8-0.2-1.3l-0.3-0.5l0.6-0.4l0.3,0.4c0.3,0.5,0.6,0.8,0.9,0.8
			c0.3,0.1,0.7,0,1.2-0.3c0.4-0.2,0.7-0.5,0.8-0.9c0.1-0.3,0.1-0.7-0.1-1c0-0.1-0.1-0.1-0.1-0.2s-0.1-0.1-0.1-0.2L580.4,199.3z"/>
		<path class="st1" d="M597.2,278.8v-1.2h-2v-1.5h2l-0.1-3.5h1l5.4,3.8v1.2l-5,0.1v1.2L597.2,278.8z M598.4,276l3.4-0.1l-3.5-2.4
			L598.4,276z"/>
		<path class="st1" d="M582.9,349.6c-0.1,0.4-0.3,0.8-0.5,1.2c-0.2,0.4-0.4,0.7-0.7,1c-0.3,0.3-0.6,0.5-0.9,0.6s-0.7,0.2-1,0.2
			c-0.4,0-0.7-0.1-1.1-0.3c-0.4-0.2-0.7-0.5-0.9-0.8c-0.2-0.3-0.4-0.6-0.4-1c-0.1-0.4-0.1-0.7,0-1.1c0.1-0.4,0.2-0.8,0.4-1.2
			c0.2-0.3,0.4-0.6,0.6-0.9c0.2-0.2,0.5-0.4,0.8-0.5s0.5-0.2,0.8-0.2s0.5,0,0.7,0.2s0.3,0.3,0.3,0.5s0,0.3-0.1,0.5
			c-0.1,0.2-0.2,0.3-0.4,0.4c-0.2,0.1-0.5,0-0.9-0.1l-0.8-0.3c-0.2,0.2-0.4,0.4-0.5,0.6c-0.2,0.4-0.2,0.9,0,1.3s0.6,0.8,1.1,1.1
			c0.5,0.3,0.9,0.3,1.3,0.2c0.4-0.1,0.7-0.4,1-0.9c0.1-0.2,0.2-0.4,0.3-0.6s0.2-0.4,0.2-0.6l0.4-0.2l3.3,2l-2.1,4l-1.4-0.7l1.8-3.4
			L582.9,349.6z"/>
		<path class="st1" d="M529.8,411.5c0.4-0.4,0.7-0.8,0.9-1.2c0.2-0.4,0.3-0.8,0.4-1.2c0.1-0.4,0.1-0.8,0-1.2c-0.1-0.4-0.2-0.7-0.3-1
			c-0.2,0.6-0.6,1-1.1,1.4c-0.7,0.4-1.3,0.6-1.9,0.5c-0.6-0.1-1.1-0.5-1.5-1.2c-0.3-0.4-0.4-0.8-0.5-1.1c-0.1-0.4,0-0.7,0-1.1
			c0.1-0.3,0.3-0.7,0.5-0.9c0.2-0.3,0.5-0.6,0.9-0.8c0.4-0.3,0.8-0.4,1.2-0.5s0.8,0,1.2,0.1s0.8,0.3,1.1,0.6c0.4,0.3,0.7,0.7,1,1.1
			c0.3,0.5,0.5,1,0.7,1.6c0.1,0.6,0.1,1.2,0,1.9c-0.1,0.6-0.3,1.3-0.7,1.9c-0.4,0.6-0.9,1.2-1.6,1.7L529.8,411.5z M527.4,404.2
			c-0.3,0.2-0.4,0.5-0.4,0.8c0,0.4,0.2,0.8,0.5,1.4c0.4,0.6,0.7,0.9,1.1,1c0.3,0.1,0.7,0.1,1-0.2c0.2-0.1,0.3-0.3,0.4-0.4
			c0.1-0.2,0.2-0.4,0.3-0.6c-0.6-1-1.2-1.6-1.7-1.9C528.2,404,527.8,403.9,527.4,404.2z"/>
		<path class="st1" d="M454.2,435.9l-0.1-0.9l2.4-7.5l1.6-0.1l0.1,0.1l-3,6.7l4.1-0.3l0.1,1.5L454.2,435.9z"/>
		<path class="st1" d="M379.9,417.7c-0.4-0.5-0.6-1-0.7-1.5c-0.1-0.5-0.1-0.9,0.1-1.3c0.3-0.7,0.8-1.1,1.4-1.3
			c0.6-0.2,1.4-0.1,2.2,0.3c0.4,0.2,0.7,0.4,1,0.6c0.3,0.2,0.5,0.5,0.7,0.7c0.2,0.3,0.2,0.5,0.3,0.8c0,0.3,0,0.6-0.2,0.9
			c-0.2,0.5-0.5,0.8-0.9,1s-0.9,0.3-1.5,0.3c0.3,0.4,0.4,0.9,0.5,1.3c0,0.4,0,0.8-0.2,1.2c-0.2,0.3-0.4,0.6-0.6,0.8
			s-0.5,0.3-0.8,0.4c-0.3,0.1-0.6,0.1-0.9,0c-0.3,0-0.6-0.1-1-0.3c-0.3-0.1-0.6-0.3-0.8-0.5c-0.2-0.2-0.4-0.4-0.5-0.7
			c-0.1-0.2-0.2-0.5-0.2-0.8s0-0.5,0.2-0.8c0.1-0.3,0.4-0.6,0.7-0.8C378.9,417.9,379.3,417.7,379.9,417.7z M379.5,421
			c0.3,0.1,0.6,0.2,0.9,0.1s0.5-0.3,0.7-0.6c0.1-0.1,0.1-0.3,0.1-0.4s0-0.3-0.1-0.5s-0.1-0.4-0.3-0.6c-0.1-0.2-0.3-0.5-0.5-0.7
			c-0.3,0.1-0.6,0.3-0.8,0.4c-0.2,0.2-0.4,0.4-0.5,0.6c-0.2,0.4-0.2,0.7-0.1,1C379,420.6,379.2,420.9,379.5,421z M382.7,414.5
			c-0.2-0.1-0.4-0.1-0.6-0.2c-0.2,0-0.4,0-0.5,0.1c-0.2,0.1-0.3,0.2-0.4,0.3c-0.1,0.1-0.2,0.3-0.3,0.4c-0.1,0.2-0.1,0.3-0.1,0.5
			s0,0.3,0.1,0.5s0.2,0.4,0.4,0.6c0.2,0.2,0.4,0.5,0.7,0.8c0.3-0.1,0.6-0.2,0.9-0.4c0.2-0.2,0.4-0.5,0.6-0.8
			c0.2-0.4,0.2-0.8,0.1-1.1C383.3,414.9,383,414.6,382.7,414.5z"/>
		<path class="st1" d="M326,368.5c-0.4-0.3-0.8-0.6-1.2-0.8c-0.4-0.2-0.7-0.3-1.1-0.3c-0.4-0.1-0.7,0-1,0c-0.3,0.1-0.7,0.2-1,0.4
			c0.4,0.2,0.8,0.5,1.1,0.9c0.2,0.3,0.4,0.6,0.5,1c0.1,0.3,0.1,0.6,0.1,1c0,0.3-0.1,0.6-0.3,0.9c-0.2,0.3-0.4,0.5-0.7,0.8
			c-0.3,0.2-0.7,0.4-1,0.5c-0.4,0.1-0.7,0.1-1,0c-0.3-0.1-0.7-0.2-1-0.4c-0.3-0.2-0.6-0.5-0.8-0.8c-0.3-0.4-0.5-0.8-0.6-1.2
			s-0.1-0.8,0-1.2s0.3-0.8,0.5-1.1c0.3-0.4,0.6-0.7,1.1-1c0.6-0.4,1.1-0.7,1.8-0.8c0.6-0.1,1.2-0.2,1.8,0c0.6,0.1,1.2,0.3,1.8,0.6
			c0.6,0.3,1.1,0.7,1.6,1.2L326,368.5z M321.8,368.8c-0.1-0.1-0.2-0.2-0.3-0.4c-0.1-0.1-0.3-0.2-0.5-0.3c-0.1,0.1-0.2,0.1-0.3,0.2
			s-0.2,0.1-0.3,0.2c-0.8,0.6-1.3,1.1-1.5,1.5c-0.2,0.4-0.2,0.8,0,1.1c0.2,0.2,0.5,0.4,0.8,0.4c0.4,0,0.8-0.2,1.4-0.6
			c0.5-0.4,0.8-0.8,0.9-1.1C322.1,369.5,322,369.1,321.8,368.8z"/>
		<path class="st1" d="M296.6,294.6l0.6-0.1l0.6,5l-0.6,0.1l-0.5-1.6c-0.3,0-0.6,0.1-0.9,0.1s-0.6,0.1-0.9,0.1l-4.4,0.5l0.3,1.1
			l-0.6,0.1l-1-2.6l0.1-0.2l1.8-0.2l3.7-0.5c0.3,0,0.6-0.1,0.9-0.1s0.6-0.1,0.9-0.1L296.6,294.6L296.6,294.6z"/>
		<path class="st1" d="M288.5,291c0-0.4,0-0.7,0.2-1.1c0.1-0.4,0.4-0.7,0.7-1c0.3-0.3,0.7-0.6,1.3-0.8c0.5-0.2,1.2-0.3,1.9-0.4
			c0.8-0.1,1.4,0,2,0.1c0.5,0.1,1,0.3,1.4,0.5s0.6,0.5,0.8,0.9c0.2,0.3,0.3,0.7,0.3,1.1s0,0.7-0.2,1.1c-0.1,0.4-0.4,0.7-0.7,1
			c-0.3,0.3-0.7,0.6-1.3,0.8c-0.5,0.2-1.2,0.3-1.9,0.4c-0.8,0.1-1.4,0-2-0.1c-0.5-0.1-1-0.3-1.4-0.5s-0.6-0.5-0.8-0.9
			C288.6,291.7,288.5,291.4,288.5,291z M292.9,291.8c0.8-0.1,1.4-0.1,1.9-0.2s0.8-0.2,1.1-0.3c0.2-0.1,0.4-0.3,0.5-0.4
			s0.1-0.3,0.1-0.5s-0.1-0.3-0.2-0.4c-0.1-0.1-0.3-0.2-0.5-0.3c-0.3-0.1-0.6-0.1-1.1-0.2c-0.5,0-1.1,0-1.9,0.1s-1.4,0.1-1.9,0.2
			s-0.8,0.2-1.1,0.3c-0.3,0.1-0.4,0.3-0.5,0.4s-0.1,0.3-0.1,0.5s0.1,0.3,0.2,0.4c0.1,0.1,0.3,0.2,0.5,0.3c0.3,0.1,0.6,0.1,1.1,0.2
			C291.4,291.9,292.1,291.9,292.9,291.8z"/>
		<path class="st1" d="M307.5,220.2l0.5,0.2l-1.9,4.6l-0.5-0.2l0.3-1.6c-0.3-0.1-0.5-0.2-0.8-0.3c-0.3-0.1-0.5-0.2-0.8-0.3l-4.1-1.7
			l-0.3,1.1l-0.6-0.2l0.4-2.8l0.2-0.1l1.7,0.7l3.4,1.4c0.3,0.1,0.6,0.2,0.8,0.3c0.3,0.1,0.5,0.2,0.8,0.3L307.5,220.2z"/>
		<path class="st1" d="M310.3,214.1l0.5,0.2l-2.1,4.6l-0.5-0.2l0.4-1.6c-0.3-0.1-0.5-0.3-0.8-0.4c-0.3-0.1-0.5-0.2-0.8-0.4l-4-1.8
			l-0.3,1.1l-0.6-0.3l0.5-2.8l0.2-0.1l1.6,0.8l3.4,1.5c0.3,0.1,0.5,0.2,0.8,0.4c0.3,0.1,0.5,0.2,0.8,0.4L310.3,214.1z"/>
		<path class="st1" d="M353.1,160.6l0.4,0.4l-3.9,3.2l-0.4-0.4l1.1-1.3c-0.2-0.2-0.4-0.5-0.6-0.7s-0.4-0.5-0.6-0.7l-2.8-3.5
			l-0.8,0.8l-0.4-0.5l1.7-2.2h0.2l1.1,1.4l2.3,2.9c0.2,0.2,0.4,0.5,0.6,0.7s0.4,0.5,0.6,0.7L353.1,160.6z"/>
		<path class="st1" d="M358.1,155.6l0.9,1.2l-4.4,3.3l-0.6-0.9l0.3-2.5c0.1-0.8,0.1-1.5,0.1-2.1c-0.1-0.6-0.3-1.1-0.6-1.5
			c-0.3-0.4-0.6-0.7-1-0.8s-0.7,0-1.1,0.3l-0.1,0.1l-0.1,0.1l0.4,0.8c0.2,0.4,0.3,0.7,0.2,0.9c0,0.2-0.1,0.4-0.3,0.5
			c-0.1,0.1-0.3,0.2-0.5,0.2c-0.2,0-0.3,0-0.5-0.1c-0.2-0.3-0.3-0.6-0.4-0.9c0-0.3,0-0.6,0.1-0.9s0.3-0.6,0.5-0.8
			c0.2-0.3,0.5-0.5,0.8-0.7c0.4-0.3,0.7-0.5,1.1-0.6c0.3-0.1,0.6-0.1,0.9-0.1s0.5,0.1,0.7,0.3c0.2,0.1,0.4,0.3,0.5,0.5
			c0.2,0.3,0.4,0.6,0.4,0.9s0.1,0.6,0.1,1s-0.1,0.8-0.2,1.3c-0.1,0.5-0.2,1-0.3,1.6l-0.2,1.2L358.1,155.6z"/>
	</g>
</g>
</svg>
