<?xml version="1.0" encoding="utf-8"?>
<!-- Generator: Adobe Illustrator 21.0.2, SVG Export Plug-In . SVG Version: 6.00 Build 0)  -->
<svg version="1.1" id="Calque_1" xmlns="http://www.w3.org/2000/svg" xmlns:xlink="http://www.w3.org/1999/xlink" x="0px" y="0px"
	 viewBox="0 0 595.3 841.9" style="enable-background:new 0 0 595.3 841.9;" xml:space="preserve">
<style type="text/css">
	.st0{fill:#FFE006;stroke:#010202;stroke-miterlimit:10;}
	.st1{fill:#FFFFFF;}
</style>
<g>
	<g>
		<path class="st0" d="M298.3,587.5c-91.8,0-166.5-74.7-166.5-166.5s74.7-166.5,166.5-166.5S464.8,329.2,464.8,421
			S390.1,587.5,298.3,587.5z M298.3,280.4c-77.5,0-140.5,63-140.5,140.5s63,140.5,140.5,140.5s140.5-63,140.5-140.5
			S375.8,280.4,298.3,280.4z"/>
	</g>
	<g>
		<path class="st1" d="M301.5,271.4v0.3h-2.7v-0.3l0.9-0.2c0-0.2,0-0.3,0-0.5s0-0.3,0-0.5v-2.4l-0.6,0.1v-0.4l1.5-0.3l0.1,0.1v1v2
			c0,0.2,0,0.3,0,0.5s0,0.3,0,0.5L301.5,271.4z"/>
		<path class="st1" d="M312.1,271.4l-0.1,0.8l-3-0.2v-0.6l1-0.9c0.3-0.3,0.6-0.6,0.8-0.8c0.2-0.3,0.3-0.5,0.3-0.8s0-0.5-0.1-0.7
			s-0.3-0.3-0.6-0.3c0,0,0,0-0.1,0s-0.1,0-0.1,0l-0.1,0.5c-0.1,0.2-0.1,0.4-0.2,0.4s-0.2,0.1-0.3,0.1c-0.1,0-0.2,0-0.2-0.1
			c-0.1-0.1-0.1-0.1-0.2-0.2c0-0.2,0.1-0.4,0.2-0.5s0.2-0.2,0.4-0.3s0.3-0.1,0.5-0.2c0.2,0,0.4,0,0.6,0c0.3,0,0.5,0.1,0.6,0.2
			c0.2,0.1,0.3,0.2,0.4,0.3c0.1,0.1,0.2,0.2,0.2,0.4s0.1,0.3,0,0.4c0,0.2-0.1,0.4-0.1,0.5c-0.1,0.2-0.2,0.3-0.3,0.5
			c-0.1,0.1-0.3,0.3-0.5,0.5s-0.4,0.4-0.7,0.6l-0.5,0.4L312.1,271.4z"/>
		<path class="st1" d="M320.8,269.6c-0.1,0.2-0.1,0.3-0.2,0.3c-0.1,0.1-0.2,0.1-0.3,0.1c-0.2,0-0.3-0.1-0.4-0.3
			c0-0.2,0.1-0.3,0.2-0.5c0.1-0.1,0.2-0.2,0.3-0.3c0.1-0.1,0.3-0.1,0.5-0.1s0.3,0,0.5,0s0.4,0.1,0.6,0.2s0.3,0.2,0.4,0.3
			s0.2,0.2,0.2,0.4c0,0.1,0,0.3,0,0.5c0,0.3-0.2,0.5-0.4,0.6c-0.2,0.2-0.5,0.2-0.8,0.3c0.4,0.1,0.6,0.3,0.8,0.5s0.2,0.5,0.2,0.8
			c0,0.2-0.1,0.3-0.2,0.5c-0.1,0.1-0.2,0.3-0.4,0.4c-0.2,0.1-0.3,0.2-0.6,0.2c-0.2,0-0.5,0-0.8,0c-0.2,0-0.4-0.1-0.6-0.2
			s-0.3-0.2-0.4-0.3c-0.1-0.1-0.2-0.2-0.2-0.4s-0.1-0.3,0-0.5c0.1-0.1,0.1-0.2,0.2-0.2s0.2,0,0.2,0c0.1,0,0.2,0.1,0.3,0.2
			c0.1,0.1,0.1,0.2,0.1,0.5v0.5c0.1,0,0.2,0.1,0.3,0.1c0.3,0,0.6,0,0.8-0.1c0.2-0.1,0.3-0.4,0.4-0.7c0-0.3,0-0.5-0.1-0.7
			s-0.3-0.3-0.6-0.4l-0.3-0.1l0.1-0.4h0.3c0.3,0,0.5,0,0.7-0.1s0.2-0.3,0.3-0.6c0-0.3,0-0.5-0.1-0.6c-0.1-0.2-0.3-0.3-0.5-0.3h-0.1
			h-0.1L320.8,269.6z"/>
		<path class="st1" d="M332.9,274.5l-0.7-0.1l-0.2,1.1l-0.8-0.2l0.2-1.1l-1.9-0.4l0.1-0.5l2.7-2.4l0.6,0.1l-0.6,2.7l0.7,0.1
			L332.9,274.5z M331.6,273.5l0.4-1.8l-1.7,1.5L331.6,273.5z"/>
		<path class="st1" d="M341.1,275c0.2,0,0.4,0.1,0.7,0.1c0.2,0.1,0.4,0.2,0.6,0.3c0.2,0.1,0.3,0.2,0.4,0.4c0.1,0.2,0.2,0.3,0.2,0.5
			s0,0.4-0.1,0.6s-0.2,0.4-0.3,0.6s-0.3,0.3-0.5,0.3c-0.2,0.1-0.4,0.1-0.6,0.1s-0.5,0-0.7-0.1s-0.4-0.1-0.5-0.2s-0.3-0.2-0.4-0.3
			c-0.1-0.1-0.2-0.3-0.2-0.4s0-0.3,0-0.4c0.1-0.1,0.1-0.2,0.2-0.2s0.2,0,0.3,0c0.1,0,0.2,0.1,0.2,0.2s0.1,0.3,0,0.5l-0.1,0.4
			c0.1,0.1,0.2,0.1,0.4,0.2c0.3,0.1,0.5,0,0.7-0.1c0.2-0.2,0.3-0.4,0.4-0.7c0.1-0.3,0.1-0.5,0-0.7s-0.3-0.4-0.6-0.4
			c-0.1,0-0.2-0.1-0.3-0.1s-0.2,0-0.4,0l-0.2-0.2l0.7-2l2.4,0.7l-0.2,0.8l-2-0.6L341.1,275z"/>
		<path class="st1" d="M353.5,277.6c-0.3-0.1-0.6-0.1-0.8,0c-0.2,0-0.5,0.1-0.7,0.2s-0.4,0.2-0.5,0.4c-0.1,0.1-0.3,0.3-0.4,0.5
			c0.3-0.1,0.6-0.1,1,0c0.4,0.2,0.7,0.4,0.8,0.7c0.1,0.3,0.1,0.7,0,1.1c-0.1,0.2-0.2,0.4-0.3,0.6c-0.1,0.1-0.3,0.3-0.5,0.3
			s-0.4,0.1-0.6,0.1s-0.4-0.1-0.6-0.1c-0.2-0.1-0.4-0.2-0.6-0.4c-0.2-0.2-0.3-0.3-0.4-0.5s-0.1-0.4-0.1-0.7c0-0.3,0.1-0.5,0.2-0.8
			s0.3-0.6,0.5-0.8c0.2-0.3,0.5-0.5,0.8-0.6c0.3-0.2,0.7-0.3,1.1-0.3s0.8,0,1.3,0.1L353.5,277.6z M351,281c0.2,0.1,0.3,0,0.5-0.1
			s0.3-0.4,0.4-0.7c0.1-0.3,0.2-0.6,0.1-0.8s-0.2-0.3-0.4-0.4c-0.1,0-0.2-0.1-0.3-0.1c-0.1,0-0.2,0-0.4,0.1c-0.2,0.6-0.3,1-0.3,1.4
			S350.8,280.9,351,281z"/>
		<path class="st1" d="M363.7,281.7l-0.2,0.4l-3.1,2.9l-0.8-0.4v-0.1l3.2-2.5l-2.1-0.9l0.3-0.8L363.7,281.7z"/>
		<path class="st1" d="M371.4,287.9c0.2,0.3,0.3,0.6,0.4,0.8c0,0.3,0,0.5-0.1,0.7c-0.2,0.4-0.5,0.6-0.8,0.6c-0.4,0.1-0.8,0-1.2-0.2
			c-0.2-0.1-0.4-0.2-0.5-0.4c-0.1-0.1-0.3-0.3-0.3-0.4c-0.1-0.1-0.1-0.3-0.1-0.5s0-0.3,0.1-0.5s0.3-0.4,0.5-0.5s0.5-0.1,0.8-0.1
			c-0.1-0.3-0.2-0.5-0.2-0.7s0-0.4,0.1-0.6s0.2-0.3,0.4-0.4s0.3-0.2,0.5-0.2s0.3,0,0.5,0s0.3,0.1,0.5,0.2s0.3,0.2,0.4,0.3
			c0.1,0.1,0.2,0.3,0.3,0.4s0.1,0.3,0.1,0.4s0,0.3-0.1,0.4c-0.1,0.2-0.2,0.3-0.4,0.4C372,287.8,371.8,287.9,371.4,287.9z
			 M369.8,289.6c0.1,0.1,0.2,0.1,0.3,0.1c0.1,0,0.2,0,0.3,0s0.2-0.1,0.2-0.1s0.1-0.1,0.2-0.2s0.1-0.2,0.1-0.3c0-0.1,0-0.2,0-0.3
			s-0.1-0.2-0.2-0.4c-0.1-0.1-0.2-0.3-0.3-0.5c-0.2,0-0.4,0.1-0.5,0.2s-0.3,0.2-0.4,0.4c-0.1,0.2-0.2,0.4-0.1,0.6
			C369.5,289.3,369.6,289.5,369.8,289.6z M371.8,286.1c-0.2-0.1-0.3-0.1-0.5-0.1s-0.3,0.1-0.4,0.3c0,0.1-0.1,0.1-0.1,0.2
			s0,0.2,0,0.3s0.1,0.2,0.1,0.3s0.1,0.3,0.3,0.4c0.2,0,0.3-0.1,0.5-0.2c0.1-0.1,0.2-0.2,0.3-0.3c0.1-0.2,0.1-0.4,0.1-0.5
			C372,286.3,371.9,286.2,371.8,286.1z"/>
		<path class="st1" d="M377.8,294.3c0.3,0.1,0.5,0.1,0.8,0.1s0.4,0,0.6,0s0.4-0.1,0.5-0.2c0.2-0.1,0.3-0.2,0.5-0.4
			c-0.2,0-0.5-0.1-0.7-0.2s-0.3-0.3-0.5-0.4c-0.1-0.1-0.2-0.3-0.2-0.5s0-0.3,0-0.5s0.1-0.4,0.2-0.5c0.1-0.2,0.3-0.3,0.4-0.4
			c0.2-0.1,0.3-0.2,0.5-0.2s0.4,0,0.6,0s0.4,0.1,0.6,0.2s0.4,0.3,0.5,0.5s0.2,0.4,0.2,0.6s0,0.4-0.1,0.7c-0.1,0.2-0.2,0.5-0.3,0.7
			c-0.2,0.3-0.5,0.6-0.7,0.8c-0.3,0.2-0.6,0.3-0.9,0.4s-0.7,0.1-1,0c-0.4-0.1-0.7-0.2-1-0.3V294.3z M379.9,293.2
			c0.1,0,0.1,0.1,0.2,0.1s0.2,0.1,0.3,0.1l0.1-0.1c0,0,0.1-0.1,0.1-0.2c0.3-0.4,0.4-0.8,0.5-1.1s0-0.5-0.2-0.6
			c-0.1-0.1-0.3-0.1-0.5,0s-0.4,0.3-0.6,0.6c-0.2,0.3-0.3,0.6-0.2,0.8C379.6,293,379.7,293.1,379.9,293.2z"/>
		<path class="st1" d="M388.5,301.5l-0.2,0.2l-2.2-1.6l0.2-0.2l0.8,0.4c0.1-0.1,0.2-0.3,0.3-0.4c0.1-0.1,0.2-0.3,0.3-0.4l1.5-2
			l-0.5-0.3l0.2-0.3l1.4,0.6v0.1l-0.6,0.8l-1.2,1.6c-0.1,0.1-0.2,0.3-0.3,0.4c-0.1,0.1-0.2,0.3-0.3,0.4L388.5,301.5z"/>
		<path class="st1" d="M395,301.2c0.2,0.1,0.3,0.3,0.4,0.5s0.1,0.4,0.1,0.6s-0.1,0.5-0.2,0.8s-0.3,0.6-0.6,0.9
			c-0.3,0.3-0.5,0.6-0.8,0.7c-0.3,0.2-0.5,0.3-0.7,0.3c-0.2,0.1-0.5,0.1-0.7,0s-0.4-0.1-0.5-0.3c-0.2-0.1-0.3-0.3-0.4-0.5
			s-0.1-0.4-0.1-0.6s0.1-0.5,0.2-0.8s0.3-0.6,0.6-0.9c0.3-0.3,0.5-0.6,0.8-0.7s0.5-0.3,0.7-0.3c0.2-0.1,0.5-0.1,0.7,0
			C394.7,301,394.8,301.1,395,301.2z M393.1,302.7c-0.3,0.3-0.5,0.6-0.6,0.8c-0.1,0.2-0.2,0.4-0.3,0.5c0,0.1-0.1,0.3,0,0.3
			c0,0.1,0.1,0.2,0.2,0.2c0.1,0.1,0.1,0.1,0.2,0.1s0.2,0,0.3-0.1c0.1-0.1,0.3-0.2,0.5-0.4s0.4-0.4,0.7-0.8c0.3-0.3,0.5-0.6,0.6-0.8
			c0.1-0.2,0.2-0.4,0.3-0.6s0.1-0.3,0-0.3c0-0.1-0.1-0.2-0.1-0.2c-0.1-0.1-0.2-0.1-0.2-0.1c-0.1,0-0.2,0-0.3,0.1
			c-0.1,0.1-0.3,0.2-0.5,0.4C393.6,302.1,393.3,302.3,393.1,302.7z"/>
		<path class="st1" d="M401.2,312.3l-0.2,0.2l-2-1.9l0.2-0.2l0.8,0.5c0.1-0.1,0.2-0.2,0.3-0.4c0.1-0.1,0.2-0.2,0.3-0.4l1.7-1.8
			l-0.5-0.4l0.2-0.3l1.3,0.8v0.1l-0.7,0.7l-1.4,1.5c-0.1,0.1-0.2,0.2-0.3,0.4c-0.1,0.1-0.2,0.2-0.3,0.4L401.2,312.3z"/>
		<path class="st1" d="M405.6,316.7l-0.2,0.2l-1.9-1.9l0.2-0.2l0.8,0.5c0.1-0.1,0.2-0.2,0.4-0.3s0.2-0.2,0.3-0.3l1.7-1.7l-0.5-0.4
			l0.2-0.2l1.3,0.8v0.1l-0.7,0.7l-1.4,1.4c-0.1,0.1-0.2,0.2-0.3,0.3s-0.2,0.2-0.3,0.3L405.6,316.7z"/>
		<path class="st1" d="M412.6,324.4l-0.2,0.2l-1.8-2.1l0.2-0.2l0.7,0.6c0.1-0.1,0.3-0.2,0.4-0.3s0.2-0.2,0.4-0.3l1.8-1.6l-0.5-0.4
			l0.3-0.2l1.2,0.9v0.1l-0.8,0.6l-1.5,1.3c-0.1,0.1-0.2,0.2-0.4,0.3s-0.2,0.2-0.4,0.3L412.6,324.4z"/>
		<path class="st1" d="M417.1,329.1l-0.7,0.5l-1.9-2.4l0.5-0.4l1.4,0.1c0.5,0,0.8,0,1.1,0c0.3,0,0.6-0.2,0.8-0.3
			c0.2-0.2,0.4-0.4,0.4-0.6s0-0.4-0.2-0.6c0,0,0,0,0-0.1s0,0-0.1-0.1l-0.4,0.2c-0.2,0.1-0.4,0.1-0.5,0.1s-0.2-0.1-0.3-0.2
			c-0.1-0.1-0.1-0.2-0.1-0.2c0-0.1,0-0.2,0-0.3c0.2-0.1,0.3-0.2,0.5-0.2s0.3,0,0.5,0c0.2,0.1,0.3,0.1,0.5,0.2
			c0.1,0.1,0.3,0.3,0.4,0.4c0.2,0.2,0.3,0.4,0.3,0.6c0.1,0.2,0.1,0.3,0.1,0.5s-0.1,0.3-0.1,0.4c-0.1,0.1-0.2,0.2-0.3,0.3
			c-0.2,0.1-0.3,0.2-0.5,0.2s-0.4,0.1-0.6,0.1s-0.4,0-0.7-0.1c-0.3,0-0.6-0.1-0.9-0.1l-0.7-0.1L417.1,329.1z"/>
		<path class="st1" d="M422.7,337.7l-0.3,0.2l-1.5-2.3l0.3-0.2l0.7,0.6c0.1-0.1,0.3-0.2,0.4-0.3c0.1-0.1,0.3-0.2,0.4-0.3l2-1.4
			l-0.4-0.5l0.3-0.2l1.1,1v0.1l-0.8,0.5l-1.7,1.1c-0.1,0.1-0.3,0.2-0.4,0.3s-0.3,0.2-0.4,0.3L422.7,337.7z"/>
		<path class="st1" d="M427.9,339.5c-0.2,0.1-0.3,0.1-0.4,0.1s-0.2-0.1-0.2-0.2c-0.1-0.2-0.1-0.3,0-0.5c0.2-0.1,0.3-0.1,0.5-0.1
			s0.3,0,0.4,0.1s0.3,0.1,0.4,0.3c0.1,0.1,0.2,0.2,0.3,0.4c0.1,0.2,0.2,0.4,0.3,0.6c0.1,0.2,0.1,0.4,0,0.5c0,0.2-0.1,0.3-0.2,0.4
			s-0.2,0.2-0.3,0.3c-0.2,0.1-0.5,0.2-0.7,0.1s-0.5-0.2-0.7-0.4c0.1,0.4,0.2,0.7,0.1,0.9s-0.2,0.5-0.5,0.7c-0.2,0.1-0.3,0.2-0.5,0.2
			s-0.3,0-0.5-0.1s-0.3-0.2-0.5-0.3c-0.2-0.1-0.3-0.3-0.5-0.6c-0.1-0.2-0.2-0.4-0.2-0.5c-0.1-0.2-0.1-0.3-0.1-0.5s0.1-0.3,0.1-0.4
			c0.1-0.1,0.2-0.2,0.3-0.3c0.1,0,0.2,0,0.3,0c0.1,0,0.1,0.1,0.2,0.2s0.1,0.2,0.1,0.3c0,0.1-0.1,0.2-0.3,0.4l-0.4,0.3
			c0,0.1,0.1,0.2,0.1,0.2c0.2,0.3,0.4,0.4,0.6,0.5s0.5,0,0.8-0.2c0.2-0.1,0.4-0.3,0.4-0.5c0.1-0.2,0-0.4-0.1-0.7l-0.2-0.3l0.3-0.2
			l0.1,0.2c0.2,0.3,0.3,0.4,0.5,0.4s0.4,0,0.6-0.2c0.2-0.1,0.4-0.3,0.4-0.5c0.1-0.2,0-0.4-0.1-0.6c0,0,0-0.1-0.1-0.1
			c0,0,0-0.1-0.1-0.1L427.9,339.5z"/>
		<path class="st1" d="M431.2,352l-0.3,0.1l-1.3-2.4l0.3-0.1l0.6,0.7c0.1-0.1,0.3-0.1,0.4-0.2s0.3-0.2,0.4-0.2l2.2-1.1l-0.4-0.5
			l0.3-0.2l1,1.2v0.1l-0.9,0.4l-1.8,0.9c-0.1,0.1-0.3,0.2-0.4,0.2c-0.1,0.1-0.3,0.2-0.4,0.2L431.2,352z"/>
		<path class="st1" d="M434.8,357.6l-0.3-0.6l-1,0.5l-0.4-0.8l1-0.5l-0.8-1.7l0.5-0.2l3.5,0.7l0.3,0.6l-2.5,1.2l0.3,0.6L434.8,357.6
			z M434.8,356l1.7-0.8l-2.3-0.4L434.8,356z"/>
		<path class="st1" d="M438,367.2l-0.3,0.1l-1-2.5l0.3-0.1l0.5,0.8c0.2-0.1,0.3-0.1,0.5-0.2s0.3-0.1,0.5-0.2l2.3-0.9l-0.3-0.5
			l0.3-0.1l0.9,1.3v0.1l-0.9,0.3l-1.9,0.7c-0.2,0.1-0.3,0.1-0.5,0.2c-0.1,0.1-0.3,0.1-0.4,0.2V367.2z"/>
		<path class="st1" d="M441.8,370.3c0.1,0.2,0.2,0.4,0.3,0.6c0.1,0.2,0.1,0.4,0.1,0.6s0,0.4-0.1,0.6s-0.2,0.3-0.3,0.5
			c-0.1,0.1-0.3,0.3-0.6,0.3c-0.2,0.1-0.4,0.1-0.6,0.1s-0.4-0.1-0.6-0.2s-0.3-0.2-0.5-0.4s-0.2-0.4-0.3-0.6
			c-0.1-0.2-0.1-0.4-0.1-0.6s0-0.4,0.1-0.5c0-0.2,0.1-0.3,0.2-0.4s0.2-0.2,0.3-0.2c0.1,0,0.2,0,0.3,0.1s0.1,0.1,0.2,0.2
			c0,0.1,0,0.2,0,0.3s-0.2,0.2-0.4,0.3l-0.4,0.2c0,0.2,0,0.3,0.1,0.4c0.1,0.3,0.3,0.4,0.5,0.5s0.5,0.1,0.8-0.1
			c0.3-0.1,0.5-0.2,0.6-0.4c0.1-0.2,0.1-0.4,0-0.7c0-0.1-0.1-0.2-0.1-0.3c-0.1-0.1-0.1-0.2-0.2-0.3v-0.2l2-0.5l0.8,2.3l-0.8,0.3
			l-0.7-2L441.8,370.3z"/>
		<path class="st1" d="M443.1,383l-0.3,0.1l-0.7-2.6l0.3-0.1l0.4,0.8c0.2,0,0.3-0.1,0.5-0.1s0.3-0.1,0.5-0.1l2.4-0.6l-0.2-0.6
			l0.3-0.1l0.7,1.4v0.1l-1,0.2l-1.9,0.5c-0.2,0-0.3,0.1-0.5,0.1s-0.3,0.1-0.5,0.1L443.1,383z"/>
		<path class="st1" d="M448.4,388.1c-0.1-0.3-0.3-0.5-0.4-0.7c-0.2-0.2-0.4-0.3-0.6-0.4s-0.4-0.2-0.6-0.2s-0.4-0.1-0.6,0
			c0.3,0.2,0.4,0.5,0.5,0.8c0.1,0.4,0.1,0.8-0.1,1.1c-0.2,0.3-0.5,0.5-0.9,0.6c-0.2,0.1-0.5,0.1-0.7,0c-0.2,0-0.4-0.1-0.5-0.2
			c-0.2-0.1-0.3-0.3-0.4-0.4c-0.1-0.2-0.2-0.4-0.2-0.6c-0.1-0.3-0.1-0.5,0-0.7c0-0.2,0.1-0.4,0.3-0.6s0.3-0.3,0.5-0.5
			c0.2-0.1,0.5-0.2,0.8-0.3c0.3-0.1,0.6-0.1,1,0s0.7,0.2,1,0.3c0.3,0.2,0.6,0.4,0.8,0.7c0.2,0.3,0.4,0.7,0.6,1.1L448.4,388.1z
			 M444.2,387.9c0,0.2,0.2,0.3,0.4,0.4c0.2,0.1,0.5,0.1,0.8,0c0.4-0.1,0.6-0.2,0.7-0.4c0.1-0.2,0.2-0.3,0.1-0.5
			c0-0.1-0.1-0.2-0.1-0.3c-0.1-0.1-0.2-0.2-0.3-0.3c-0.6,0.1-1,0.3-1.3,0.5C444.3,387.5,444.2,387.7,444.2,387.9z"/>
		<path class="st1" d="M446.4,399.4h-0.3l-0.4-2.7h0.3l0.3,0.9c0.2,0,0.3,0,0.5-0.1c0.2,0,0.3,0,0.5-0.1l2.4-0.4l-0.2-0.6l0.3-0.1
			l0.6,1.4v0.1l-1,0.1l-2,0.3c-0.2,0-0.3,0-0.5,0.1c-0.2,0-0.3,0.1-0.5,0.1L446.4,399.4z"/>
		<path class="st1" d="M451.3,405.3l-0.5,0.1l-4.1-1.2l-0.1-0.9l0.1-0.1l3.7,1.5l-0.3-2.2l0.8-0.1L451.3,405.3z"/>
		<path class="st1" d="M447.9,416h-0.3l-0.1-2.7h0.3l0.2,0.9c0.2,0,0.3,0,0.5,0s0.3,0,0.5,0l2.4-0.1l-0.1-0.6h0.3l0.4,1.5l-0.1,0.1
			h-1l-2,0.1c-0.2,0-0.3,0-0.5,0s-0.3,0-0.5,0L447.9,416z"/>
		<path class="st1" d="M450.1,421.4c-0.2,0.3-0.3,0.6-0.5,0.7c-0.2,0.2-0.4,0.2-0.7,0.2c-0.4,0-0.7-0.1-1-0.4
			c-0.2-0.3-0.4-0.7-0.4-1.2c0-0.2,0-0.4,0.1-0.6c0-0.2,0.1-0.4,0.2-0.5s0.2-0.2,0.3-0.3c0.1-0.1,0.3-0.1,0.5-0.1
			c0.3,0,0.5,0.1,0.7,0.2c0.2,0.2,0.4,0.4,0.5,0.6c0.2-0.2,0.3-0.4,0.5-0.5s0.4-0.2,0.6-0.2s0.4,0,0.5,0.1c0.2,0.1,0.3,0.2,0.4,0.3
			s0.2,0.3,0.2,0.5s0.1,0.4,0.1,0.5c0,0.2,0,0.4-0.1,0.5s-0.1,0.3-0.2,0.4s-0.2,0.2-0.3,0.3s-0.3,0.1-0.4,0.1c-0.2,0-0.4,0-0.5-0.1
			C450.5,421.9,450.3,421.7,450.1,421.4z M447.9,420.8c0,0.1,0,0.2,0.1,0.3c0,0.1,0.1,0.2,0.2,0.2c0.1,0.1,0.2,0.1,0.2,0.1
			c0.1,0,0.2,0,0.3,0c0.1,0,0.2,0,0.3-0.1c0.1,0,0.2-0.1,0.2-0.2c0.1-0.1,0.1-0.2,0.2-0.3c0.1-0.1,0.2-0.3,0.3-0.5
			c-0.1-0.2-0.3-0.3-0.4-0.3s-0.3-0.1-0.6-0.1c-0.3,0-0.5,0.1-0.6,0.2C448,420.4,447.9,420.6,447.9,420.8z M451.9,420.8
			c0-0.2-0.1-0.3-0.2-0.5c-0.1-0.1-0.3-0.2-0.5-0.2c-0.1,0-0.2,0-0.2,0c-0.1,0-0.1,0.1-0.2,0.1c-0.1,0.1-0.1,0.2-0.2,0.3
			s-0.2,0.3-0.2,0.4c0.1,0.1,0.3,0.2,0.4,0.3s0.3,0.1,0.4,0.1c0.2,0,0.4-0.1,0.5-0.2S451.9,421,451.9,420.8z"/>
		<path class="st1" d="M447.5,432.6h-0.3l0.2-2.7h0.3l0.1,0.9c0.2,0,0.3,0,0.5,0s0.3,0,0.5,0l2.4,0.2v-0.6h0.3l0.3,1.5l-0.1,0.1
			l-1-0.1l-2-0.1c-0.2,0-0.3,0-0.5,0s-0.3,0-0.5,0L447.5,432.6z"/>
		<path class="st1" d="M447.1,436.3c0,0.3,0.1,0.5,0.2,0.7s0.2,0.4,0.3,0.5c0.1,0.2,0.3,0.3,0.4,0.4c0.2,0.1,0.3,0.2,0.5,0.2
			c-0.1-0.2-0.1-0.5-0.1-0.8c0-0.2,0.1-0.4,0.2-0.6s0.2-0.3,0.3-0.4c0.1-0.1,0.3-0.2,0.5-0.2s0.4-0.1,0.6,0c0.2,0,0.4,0.1,0.6,0.2
			s0.3,0.2,0.4,0.4c0.1,0.2,0.2,0.3,0.3,0.5c0.1,0.2,0.1,0.4,0,0.6c0,0.3-0.1,0.5-0.2,0.7s-0.3,0.4-0.4,0.5
			c-0.2,0.1-0.4,0.2-0.6,0.3c-0.2,0-0.5,0.1-0.8,0c-0.4,0-0.7-0.1-1-0.3c-0.3-0.2-0.6-0.4-0.8-0.7c-0.2-0.3-0.4-0.6-0.5-0.9
			s-0.2-0.7-0.2-1.1L447.1,436.3z M448.9,437.8c0,0.1,0,0.2,0,0.3c0,0.1,0,0.2,0.1,0.3c0.1,0,0.1,0,0.2,0s0.1,0,0.2,0
			c0.5,0.1,0.9,0,1.2-0.1s0.4-0.2,0.4-0.4c0-0.2,0-0.3-0.2-0.5s-0.4-0.2-0.8-0.3c-0.4,0-0.6,0-0.8,0.1
			C449.1,437.4,449,437.5,448.9,437.8z"/>
		<path class="st1" d="M445.8,449.4l-0.8-0.1l0.5-3l0.6,0.1l0.8,1.1c0.3,0.4,0.5,0.7,0.8,0.9c0.2,0.2,0.5,0.3,0.8,0.4
			c0.3,0,0.5,0,0.7-0.1s0.3-0.3,0.3-0.5c0,0,0,0,0-0.1V448l-0.5-0.2c-0.2-0.1-0.4-0.2-0.4-0.3s-0.1-0.2-0.1-0.3
			c0-0.1,0.1-0.2,0.1-0.2c0.1-0.1,0.1-0.1,0.2-0.1c0.2,0,0.3,0.1,0.5,0.2c0.1,0.1,0.2,0.2,0.3,0.4s0.1,0.3,0.1,0.5s0,0.4,0,0.6
			c0,0.3-0.1,0.5-0.2,0.6c-0.1,0.2-0.2,0.3-0.3,0.4s-0.3,0.1-0.4,0.2c-0.1,0-0.3,0-0.4,0c-0.2,0-0.4-0.1-0.5-0.2s-0.3-0.2-0.4-0.4
			c-0.1-0.2-0.3-0.4-0.4-0.6s-0.3-0.5-0.5-0.8l-0.4-0.6L445.8,449.4z"/>
		<path class="st1" d="M448.5,454.9c0,0.2-0.1,0.4-0.3,0.5c-0.1,0.2-0.3,0.3-0.5,0.4s-0.5,0.2-0.8,0.2s-0.7,0-1.1-0.1
			s-0.7-0.2-1-0.4c-0.3-0.2-0.5-0.3-0.6-0.5c-0.2-0.2-0.2-0.4-0.3-0.6c0-0.2,0-0.4,0-0.6s0.1-0.4,0.3-0.5c0.1-0.2,0.3-0.3,0.5-0.4
			s0.5-0.2,0.8-0.2s0.7,0,1.1,0.1s0.7,0.2,1,0.4c0.3,0.2,0.5,0.3,0.6,0.5c0.2,0.2,0.2,0.4,0.3,0.6
			C448.6,454.5,448.6,454.7,448.5,454.9z M446.4,453.7c-0.4-0.1-0.8-0.2-1-0.2c-0.3,0-0.5,0-0.6,0s-0.3,0.1-0.3,0.1
			c-0.1,0.1-0.1,0.1-0.1,0.2s0,0.2,0,0.3c0,0.1,0.1,0.2,0.2,0.3c0.1,0.1,0.3,0.2,0.6,0.3s0.6,0.2,1,0.3c0.4,0.1,0.8,0.2,1,0.2
			c0.3,0,0.5,0,0.6,0c0.2,0,0.3-0.1,0.3-0.1s0.1-0.1,0.1-0.2s0-0.2,0-0.3s-0.1-0.2-0.2-0.3c-0.1-0.1-0.3-0.2-0.6-0.3
			C447.1,453.9,446.8,453.8,446.4,453.7z"/>
		<path class="st1" d="M441.8,465.6l-0.8-0.2l0.9-2.9l0.6,0.2l0.7,1.2c0.2,0.4,0.4,0.7,0.7,0.9c0.2,0.2,0.5,0.4,0.8,0.5
			s0.5,0.1,0.7,0s0.3-0.2,0.4-0.5c0,0,0,0,0-0.1v-0.1l-0.4-0.2c-0.2-0.1-0.3-0.2-0.4-0.3c-0.1-0.1-0.1-0.2,0-0.3
			c0-0.1,0.1-0.2,0.1-0.2c0.1-0.1,0.1-0.1,0.2-0.1c0.2,0.1,0.3,0.1,0.4,0.3s0.2,0.3,0.2,0.4s0.1,0.3,0.1,0.5s0,0.4-0.1,0.6
			s-0.2,0.4-0.3,0.6c-0.1,0.2-0.2,0.3-0.4,0.3c-0.1,0.1-0.3,0.1-0.4,0.1s-0.3,0-0.4,0c-0.2-0.1-0.3-0.1-0.5-0.3s-0.3-0.3-0.4-0.4
			c-0.1-0.2-0.2-0.4-0.3-0.6c-0.1-0.2-0.2-0.5-0.4-0.8l-0.3-0.6L441.8,465.6z"/>
		<path class="st1" d="M439.3,471.3l-0.3-0.1l0.9-2.6l0.3,0.1l-0.1,0.9c0.2,0.1,0.3,0.1,0.5,0.2s0.3,0.1,0.5,0.2l2.3,0.8l0.1-0.6
			l0.3,0.1l-0.2,1.5l-0.1,0.1l-0.9-0.4l-1.9-0.7c-0.2-0.1-0.3-0.1-0.5-0.2s-0.3-0.1-0.5-0.2L439.3,471.3z"/>
		<path class="st1" d="M435.9,481.3l-0.8-0.3l1.2-2.8l0.5,0.2l0.5,1.3c0.2,0.4,0.4,0.8,0.5,1c0.2,0.2,0.4,0.4,0.7,0.5
			c0.3,0.1,0.5,0.1,0.7,0.1s0.4-0.2,0.5-0.4c0,0,0,0,0-0.1s0-0.1,0-0.1l-0.4-0.3c-0.2-0.1-0.3-0.3-0.3-0.4s0-0.2,0-0.3
			c0-0.1,0.1-0.2,0.2-0.2s0.2-0.1,0.3-0.1c0.2,0.1,0.3,0.2,0.4,0.3c0.1,0.1,0.2,0.3,0.2,0.4c0,0.2,0,0.3,0,0.5s-0.1,0.4-0.2,0.6
			s-0.2,0.4-0.3,0.6c-0.1,0.1-0.3,0.2-0.4,0.3c-0.1,0.1-0.3,0.1-0.4,0.1s-0.3,0-0.4-0.1c-0.2-0.1-0.3-0.2-0.4-0.3s-0.2-0.3-0.3-0.5
			s-0.2-0.4-0.3-0.7c-0.1-0.2-0.2-0.5-0.3-0.9l-0.2-0.6L435.9,481.3z"/>
		<path class="st1" d="M433.3,487l-0.8-0.4l1.3-2.7l0.5,0.2l0.5,1.3c0.2,0.4,0.3,0.8,0.5,1c0.2,0.3,0.4,0.4,0.7,0.6
			c0.3,0.1,0.5,0.2,0.7,0.1c0.2,0,0.4-0.2,0.5-0.4c0,0,0,0,0-0.1c0,0,0,0,0-0.1l-0.4-0.3c-0.2-0.1-0.3-0.3-0.3-0.4s0-0.2,0-0.3
			c0-0.1,0.1-0.1,0.2-0.2c0.1,0,0.2-0.1,0.3-0.1c0.2,0.1,0.3,0.2,0.4,0.3c0.1,0.1,0.2,0.3,0.2,0.5s0,0.3,0,0.5s-0.1,0.4-0.2,0.6
			s-0.2,0.4-0.4,0.5c-0.1,0.1-0.3,0.2-0.4,0.3c-0.1,0.1-0.3,0.1-0.4,0.1s-0.3-0.1-0.4-0.1c-0.2-0.1-0.3-0.2-0.4-0.3
			c-0.1-0.1-0.2-0.3-0.3-0.5c-0.1-0.2-0.2-0.4-0.2-0.7c-0.1-0.3-0.2-0.5-0.3-0.9l-0.2-0.6L433.3,487z"/>
		<path class="st1" d="M428.4,496.2l-0.7-0.4l1.5-2.6l0.5,0.3l0.4,1.3c0.1,0.4,0.3,0.8,0.4,1.1c0.2,0.3,0.4,0.5,0.6,0.6
			s0.5,0.2,0.7,0.2s0.4-0.2,0.5-0.4c0,0,0,0,0-0.1s0,0,0-0.1l-0.4-0.3c-0.2-0.2-0.3-0.3-0.3-0.4s0-0.2,0-0.3c0-0.1,0.1-0.1,0.2-0.2
			c0.1,0,0.2-0.1,0.3-0.1c0.2,0.1,0.3,0.2,0.4,0.4c0.1,0.1,0.1,0.3,0.2,0.5c0,0.2,0,0.3-0.1,0.5c0,0.2-0.1,0.4-0.2,0.5
			c-0.1,0.2-0.3,0.4-0.4,0.5s-0.3,0.2-0.4,0.2s-0.3,0.1-0.4,0c-0.1,0-0.3-0.1-0.4-0.1c-0.2-0.1-0.3-0.2-0.4-0.4
			c-0.1-0.1-0.2-0.3-0.3-0.5c-0.1-0.2-0.1-0.4-0.2-0.7s-0.1-0.6-0.2-0.9l-0.2-0.7L428.4,496.2z"/>
		<path class="st1" d="M428.7,501.3c-0.1-0.1-0.2-0.2-0.2-0.3c0-0.1,0-0.2,0-0.3c0.1-0.2,0.2-0.2,0.4-0.2c0.2,0.1,0.3,0.2,0.3,0.4
			c0.1,0.1,0.1,0.3,0.1,0.4c0,0.2,0,0.3-0.1,0.5c0,0.2-0.1,0.3-0.2,0.5s-0.3,0.4-0.4,0.5s-0.3,0.2-0.4,0.3c-0.2,0.1-0.3,0.1-0.5,0.1
			s-0.3-0.1-0.4-0.2c-0.2-0.1-0.4-0.3-0.4-0.6s0-0.5,0-0.8c-0.3,0.3-0.5,0.5-0.8,0.5s-0.5,0-0.8-0.2c-0.2-0.1-0.3-0.2-0.4-0.4
			c-0.1-0.1-0.2-0.3-0.2-0.5s0-0.4,0.1-0.6s0.2-0.4,0.3-0.7c0.1-0.2,0.2-0.3,0.4-0.5c0.1-0.1,0.3-0.2,0.4-0.3
			c0.1-0.1,0.3-0.1,0.5-0.1s0.3,0.1,0.5,0.2c0.1,0.1,0.1,0.2,0.1,0.3c0,0.1,0,0.2-0.1,0.2c-0.1,0.1-0.1,0.2-0.2,0.2s-0.3,0-0.5-0.1
			l-0.4-0.2c-0.1,0.1-0.1,0.1-0.2,0.2c-0.2,0.3-0.2,0.5-0.2,0.7c0.1,0.2,0.2,0.4,0.5,0.6c0.2,0.1,0.5,0.2,0.7,0.2s0.4-0.2,0.6-0.4
			l0.2-0.3l0.3,0.2l-0.1,0.2c-0.2,0.3-0.2,0.5-0.2,0.7c0.1,0.2,0.2,0.4,0.4,0.5c0.2,0.1,0.4,0.2,0.6,0.2s0.3-0.1,0.5-0.3
			c0,0,0-0.1,0.1-0.1v-0.1L428.7,501.3z"/>
		<path class="st1" d="M419.2,510.1l-0.7-0.5l1.8-2.4l0.5,0.3l0.2,1.4c0.1,0.4,0.2,0.8,0.3,1.1s0.3,0.5,0.6,0.7
			c0.2,0.2,0.4,0.2,0.7,0.2s0.4-0.1,0.5-0.3c0,0,0,0,0-0.1c0,0,0,0,0-0.1l-0.3-0.4c-0.2-0.2-0.2-0.3-0.3-0.4c0-0.1,0-0.2,0.1-0.3
			c0.1-0.1,0.1-0.1,0.2-0.2c0.1,0,0.2,0,0.3,0c0.2,0.1,0.3,0.2,0.3,0.4c0.1,0.2,0.1,0.3,0.1,0.5s0,0.3-0.1,0.5s-0.2,0.3-0.3,0.5
			c-0.2,0.2-0.3,0.4-0.5,0.5s-0.3,0.2-0.5,0.2s-0.3,0-0.4,0s-0.3-0.1-0.4-0.2c-0.2-0.1-0.3-0.2-0.4-0.4c-0.1-0.1-0.2-0.3-0.2-0.5
			s-0.1-0.4-0.1-0.7c0-0.3-0.1-0.6-0.1-0.9l-0.1-0.7L419.2,510.1z"/>
		<path class="st1" d="M415.4,515.5l0.4-0.5l-0.9-0.7l0.5-0.7l0.9,0.7l1.2-1.5l0.4,0.3l0.9,3.5l-0.4,0.5l-2.2-1.7l-0.4,0.5
			L415.4,515.5z M416.9,514.7l1.5,1.2l-0.6-2.2L416.9,514.7z"/>
		<path class="st1" d="M408.6,523l-0.6-0.6l2-2.2l0.4,0.4l0.1,1.4c0,0.5,0.1,0.8,0.2,1.1s0.3,0.5,0.5,0.7s0.4,0.3,0.6,0.3
			s0.4-0.1,0.6-0.3c0,0,0,0,0-0.1c0,0,0,0,0-0.1l-0.3-0.4c-0.1-0.2-0.2-0.3-0.2-0.5c0-0.1,0-0.2,0.1-0.3s0.1-0.1,0.2-0.1
			s0.2,0,0.3,0c0.1,0.1,0.2,0.3,0.3,0.4c0.1,0.2,0.1,0.3,0,0.5c0,0.2-0.1,0.3-0.2,0.5s-0.2,0.3-0.3,0.5c-0.2,0.2-0.3,0.3-0.5,0.4
			c-0.2,0.1-0.3,0.1-0.5,0.1s-0.3,0-0.4-0.1s-0.2-0.1-0.3-0.2c-0.1-0.1-0.3-0.3-0.3-0.4c-0.1-0.2-0.1-0.3-0.1-0.5s0-0.4,0-0.7
			s0-0.6,0-0.9v-0.7L408.6,523z"/>
		<path class="st1" d="M407.2,527.3c-0.1,0.2-0.3,0.4-0.4,0.5c-0.2,0.2-0.3,0.3-0.5,0.4c-0.2,0.1-0.4,0.2-0.6,0.2s-0.4,0-0.6-0.1
			s-0.4-0.2-0.5-0.4c-0.2-0.2-0.3-0.3-0.4-0.5s-0.1-0.4-0.1-0.6c0-0.2,0.1-0.4,0.2-0.6c0.1-0.2,0.2-0.4,0.4-0.6
			c0.1-0.1,0.3-0.3,0.5-0.4c0.2-0.1,0.3-0.1,0.5-0.2s0.3,0,0.4,0s0.3,0.1,0.4,0.2c0.1,0.1,0.1,0.2,0.1,0.3s0,0.2-0.1,0.3
			s-0.2,0.1-0.3,0.1c-0.1,0-0.3-0.1-0.4-0.2l-0.4-0.3c-0.1,0.1-0.2,0.1-0.3,0.2c-0.2,0.2-0.3,0.4-0.2,0.7c0,0.3,0.2,0.5,0.4,0.7
			c0.2,0.2,0.4,0.3,0.7,0.3s0.4-0.1,0.7-0.3c0.1-0.1,0.2-0.2,0.2-0.3c0.1-0.1,0.1-0.2,0.2-0.3l0.2-0.1l1.4,1.6l-1.7,1.8l-0.6-0.6
			l1.5-1.5L407.2,527.3z"/>
		<path class="st1" d="M396.5,534.7L396,534l2.3-2l0.4,0.4l-0.1,1.4c0,0.5,0,0.8,0.1,1.1s0.2,0.6,0.4,0.8c0.2,0.2,0.4,0.3,0.6,0.4
			s0.4,0,0.6-0.2c0,0,0,0,0.1,0c0,0,0,0,0.1-0.1l-0.2-0.4c-0.1-0.2-0.2-0.4-0.2-0.5s0.1-0.2,0.1-0.3c0.1-0.1,0.1-0.1,0.2-0.1
			s0.2,0,0.3,0c0.1,0.1,0.2,0.3,0.2,0.5s0,0.3,0,0.5s-0.1,0.3-0.2,0.5s-0.2,0.3-0.4,0.4c-0.2,0.2-0.4,0.3-0.6,0.4
			c-0.2,0.1-0.3,0.1-0.5,0.1s-0.3,0-0.4-0.1s-0.2-0.2-0.3-0.3c-0.1-0.1-0.2-0.3-0.3-0.5c-0.1-0.2-0.1-0.3-0.1-0.6c0-0.2,0-0.4,0-0.7
			s0.1-0.6,0.1-0.9l0.1-0.7L396.5,534.7z"/>
		<path class="st1" d="M394.1,541.2c0.2-0.2,0.3-0.5,0.4-0.7s0.1-0.5,0.1-0.7s0-0.4-0.1-0.6c-0.1-0.2-0.1-0.4-0.2-0.6
			c-0.1,0.3-0.2,0.6-0.5,0.8c-0.3,0.3-0.7,0.4-1,0.4s-0.6-0.2-0.9-0.6c-0.2-0.2-0.3-0.4-0.3-0.6s-0.1-0.4,0-0.6
			c0-0.2,0.1-0.4,0.2-0.5c0.1-0.2,0.3-0.3,0.4-0.5c0.2-0.2,0.4-0.3,0.6-0.3s0.4-0.1,0.7,0s0.4,0.1,0.6,0.3c0.2,0.1,0.4,0.3,0.6,0.6
			c0.2,0.2,0.3,0.5,0.5,0.8c0.1,0.3,0.2,0.7,0.1,1c0,0.4-0.1,0.7-0.3,1.1c-0.2,0.4-0.4,0.7-0.8,1L394.1,541.2z M392.5,537.3
			c-0.1,0.1-0.2,0.3-0.2,0.5s0.1,0.4,0.4,0.7c0.2,0.3,0.4,0.4,0.6,0.5c0.2,0,0.4,0,0.5-0.1s0.2-0.2,0.2-0.3c0.1-0.1,0.1-0.2,0.1-0.4
			c-0.4-0.5-0.7-0.8-1-0.9C392.9,537.2,392.6,537.2,392.5,537.3z"/>
		<path class="st1" d="M383.3,544.9l-0.5-0.7l2.5-1.7l0.3,0.5l-0.2,1.4c-0.1,0.4-0.1,0.8-0.1,1.1s0.1,0.6,0.3,0.8
			c0.2,0.2,0.3,0.4,0.5,0.4c0.2,0.1,0.4,0,0.6-0.1c0,0,0,0,0.1,0c0,0,0,0,0.1-0.1l-0.2-0.4c-0.1-0.2-0.1-0.4-0.1-0.5
			s0.1-0.2,0.2-0.3s0.2-0.1,0.2-0.1c0.1,0,0.2,0,0.3,0.1c0.1,0.2,0.2,0.3,0.2,0.5s0,0.3-0.1,0.5s-0.2,0.3-0.3,0.5s-0.3,0.3-0.4,0.4
			c-0.2,0.1-0.4,0.2-0.6,0.3c-0.2,0-0.4,0.1-0.5,0c-0.2,0-0.3-0.1-0.4-0.2c-0.1-0.1-0.2-0.2-0.3-0.3c-0.1-0.2-0.2-0.3-0.2-0.5
			s0-0.4,0-0.6c0-0.2,0.1-0.4,0.1-0.7s0.1-0.6,0.2-0.9l0.1-0.7L383.3,544.9z"/>
		<path class="st1" d="M380,551.4l-0.3-0.4l-0.8-4.2l0.7-0.5h0.1l0.3,4l1.9-1.2l0.5,0.7L380,551.4z"/>
		<path class="st1" d="M369,553.6l-0.4-0.7l2.6-1.5l0.3,0.5l-0.4,1.3c-0.1,0.4-0.2,0.8-0.2,1.1s0.1,0.6,0.2,0.9
			c0.1,0.2,0.3,0.4,0.5,0.5s0.4,0.1,0.6-0.1c0,0,0,0,0.1,0c0,0,0,0,0.1-0.1l-0.1-0.5c-0.1-0.2-0.1-0.4,0-0.5c0-0.1,0.1-0.2,0.2-0.2
			s0.2-0.1,0.3-0.1c0.1,0,0.2,0,0.2,0.1c0.1,0.2,0.1,0.3,0.1,0.5s0,0.3-0.1,0.5s-0.2,0.3-0.3,0.4c-0.1,0.1-0.3,0.2-0.5,0.3
			s-0.4,0.2-0.6,0.2s-0.4,0-0.5,0s-0.3-0.1-0.4-0.2c-0.1-0.1-0.2-0.2-0.3-0.3c-0.1-0.2-0.1-0.3-0.2-0.5s0-0.4,0-0.6s0.1-0.4,0.2-0.7
			s0.2-0.5,0.3-0.9l0.2-0.6L369,553.6z"/>
		<path class="st1" d="M365,557.5c-0.4,0-0.7-0.1-0.9-0.2c-0.2-0.1-0.4-0.3-0.5-0.5c-0.2-0.4-0.2-0.7,0-1.1c0.1-0.3,0.4-0.6,0.9-0.8
			c0.2-0.1,0.4-0.2,0.6-0.2s0.4-0.1,0.5,0c0.2,0,0.3,0.1,0.4,0.2s0.2,0.2,0.3,0.4c0.1,0.2,0.2,0.5,0.1,0.7s-0.2,0.5-0.4,0.7
			c0.3,0,0.5,0.1,0.7,0.2c0.2,0.1,0.3,0.3,0.4,0.5s0.1,0.4,0.1,0.5s0,0.3-0.1,0.5s-0.2,0.3-0.3,0.4c-0.1,0.1-0.3,0.2-0.5,0.3
			s-0.3,0.1-0.5,0.2s-0.3,0-0.5,0s-0.3-0.1-0.4-0.2s-0.2-0.2-0.3-0.3c-0.1-0.2-0.1-0.3-0.1-0.5S364.8,557.8,365,557.5z M364.6,555.2
			c-0.1,0.1-0.2,0.1-0.3,0.2c-0.1,0.1-0.1,0.2-0.1,0.2s0,0.2,0,0.3s0,0.2,0.1,0.3c0,0.1,0.1,0.2,0.2,0.2c0.1,0.1,0.1,0.1,0.3,0.1
			c0.1,0,0.2,0.1,0.4,0.1c0.2,0,0.4,0,0.6,0c0.1-0.2,0.1-0.3,0.1-0.5s-0.1-0.3-0.2-0.5s-0.3-0.4-0.5-0.4
			C365,555.1,364.8,555.1,364.6,555.2z M366.3,558.8c0.2-0.1,0.3-0.2,0.3-0.4c0.1-0.2,0-0.3,0-0.5c0-0.1-0.1-0.1-0.1-0.2
			c-0.1-0.1-0.1-0.1-0.2-0.1s-0.2-0.1-0.3-0.1s-0.3,0-0.5,0c-0.1,0.2-0.1,0.4-0.1,0.5s0,0.3,0.1,0.4c0.1,0.2,0.2,0.3,0.4,0.4
			C366,558.9,366.1,558.9,366.3,558.8z"/>
		<path class="st1" d="M353.9,560.6l-0.3-0.8l2.8-1.1l0.2,0.5l-0.5,1.3c-0.2,0.4-0.3,0.8-0.3,1.1s0,0.6,0.1,0.9
			c0.1,0.3,0.2,0.4,0.4,0.5c0.2,0.1,0.4,0.1,0.6,0c0,0,0,0,0.1,0c0,0,0,0,0.1,0l-0.1-0.5c0-0.2,0-0.4,0-0.5s0.1-0.2,0.2-0.2
			s0.2,0,0.3,0c0.1,0,0.2,0.1,0.2,0.1c0.1,0.2,0.1,0.4,0.1,0.5s-0.1,0.3-0.2,0.5c-0.1,0.1-0.2,0.3-0.4,0.4s-0.3,0.2-0.5,0.3
			s-0.5,0.1-0.6,0.2c-0.2,0-0.4,0-0.5-0.1s-0.3-0.1-0.4-0.2c-0.1-0.1-0.2-0.2-0.2-0.3c-0.1-0.2-0.1-0.4-0.1-0.5c0-0.2,0-0.4,0.1-0.6
			s0.1-0.4,0.3-0.7s0.2-0.5,0.4-0.8l0.3-0.6L353.9,560.6z"/>
		<path class="st1" d="M350.3,561.3c-0.2,0.2-0.4,0.3-0.6,0.5s-0.3,0.3-0.3,0.5s-0.1,0.4-0.1,0.6c0,0.2,0,0.4,0,0.6
			c0.2-0.2,0.4-0.3,0.6-0.4c0.2-0.1,0.4-0.1,0.6-0.1s0.4,0,0.5,0.1s0.3,0.2,0.4,0.3s0.2,0.3,0.3,0.5c0.1,0.2,0.1,0.4,0.1,0.6
			c0,0.2-0.1,0.4-0.2,0.6c-0.1,0.2-0.2,0.3-0.4,0.5c-0.2,0.1-0.3,0.2-0.5,0.3s-0.5,0.1-0.7,0.1s-0.4-0.1-0.6-0.2s-0.4-0.3-0.5-0.5
			s-0.3-0.4-0.4-0.7c-0.1-0.4-0.2-0.7-0.2-1.1c0-0.3,0.1-0.7,0.3-1c0.1-0.3,0.4-0.6,0.6-0.8c0.3-0.2,0.6-0.5,0.9-0.6L350.3,561.3z
			 M349.9,563.6c-0.1,0-0.2,0.1-0.2,0.1c-0.1,0.1-0.2,0.1-0.2,0.2c0,0.1,0,0.1,0.1,0.2c0,0.1,0,0.1,0.1,0.2c0.2,0.5,0.4,0.8,0.6,1
			s0.4,0.2,0.6,0.2c0.2-0.1,0.3-0.2,0.3-0.4c0.1-0.2,0-0.5-0.1-0.8s-0.3-0.6-0.5-0.7C350.3,563.5,350.1,563.5,349.9,563.6z"/>
		<path class="st1" d="M340.8,568.1c0-0.2,0-0.3,0.1-0.4s0.1-0.1,0.2-0.2c0.2,0,0.3,0,0.5,0.1c0,0.2,0,0.3,0,0.5s-0.1,0.3-0.2,0.4
			s-0.2,0.2-0.4,0.3c-0.1,0.1-0.3,0.2-0.5,0.2c-0.2,0.1-0.4,0.1-0.6,0.1s-0.4,0-0.5-0.1s-0.3-0.2-0.4-0.3s-0.2-0.2-0.2-0.4
			c-0.1-0.3-0.1-0.5,0.1-0.7c0.1-0.2,0.3-0.4,0.6-0.6c-0.4,0-0.7,0-0.9-0.1s-0.4-0.4-0.5-0.7c0-0.2-0.1-0.3,0-0.5
			c0-0.2,0.1-0.3,0.2-0.5c0.1-0.1,0.3-0.3,0.4-0.4c0.2-0.1,0.4-0.2,0.7-0.3c0.2-0.1,0.4-0.1,0.6-0.1s0.4,0,0.5,0.1s0.3,0.1,0.4,0.3
			c0.1,0.1,0.2,0.3,0.2,0.4c0,0.1,0,0.2-0.1,0.3s-0.1,0.1-0.2,0.1s-0.2,0-0.3,0c-0.1,0-0.2-0.2-0.3-0.4l-0.2-0.4c-0.1,0-0.2,0-0.3,0
			c-0.3,0.1-0.5,0.2-0.6,0.4s-0.1,0.5,0,0.8s0.2,0.5,0.4,0.6s0.4,0.1,0.7,0.1l0.3-0.1l0.1,0.4l-0.3,0.1c-0.3,0.1-0.5,0.2-0.6,0.4
			s-0.1,0.4,0,0.7s0.2,0.4,0.4,0.5c0.2,0.1,0.4,0.1,0.6,0.1h0.1h0.1L340.8,568.1z"/>
		<path class="st1" d="M334.3,570.7c-0.2,0-0.4,0-0.6,0s-0.4-0.1-0.6-0.3c-0.2-0.1-0.4-0.4-0.5-0.6c-0.2-0.3-0.3-0.6-0.4-1
			s-0.1-0.8-0.1-1.1s0.1-0.6,0.2-0.8s0.2-0.4,0.4-0.5c0.2-0.1,0.3-0.2,0.5-0.3c0.2,0,0.4-0.1,0.6,0c0.2,0,0.4,0.1,0.6,0.3
			c0.2,0.1,0.4,0.4,0.5,0.6c0.2,0.3,0.3,0.6,0.4,1s0.1,0.8,0.1,1.1s-0.1,0.6-0.2,0.8s-0.2,0.4-0.4,0.5
			C334.7,570.6,334.5,570.7,334.3,570.7z M334.4,568.3c-0.1-0.4-0.2-0.8-0.3-1c-0.1-0.2-0.2-0.4-0.3-0.6s-0.2-0.2-0.3-0.2
			c-0.1,0-0.2,0-0.3,0c-0.1,0-0.2,0.1-0.2,0.1c-0.1,0.1-0.1,0.2-0.1,0.3c0,0.2,0,0.4,0,0.6c0,0.3,0.1,0.6,0.2,1s0.2,0.7,0.3,1
			c0.1,0.2,0.2,0.4,0.3,0.6c0.1,0.1,0.2,0.2,0.3,0.2s0.2,0,0.3,0c0.1,0,0.2-0.1,0.2-0.1c0.1-0.1,0.1-0.2,0.1-0.3s0-0.4,0-0.6
			C334.5,569.1,334.5,568.7,334.4,568.3z"/>
		<path class="st1" d="M324.2,571.9c0-0.2,0-0.3,0.1-0.4c0.1-0.1,0.1-0.1,0.2-0.1c0.2,0,0.3,0,0.5,0.2c0,0.2,0,0.4,0,0.5
			c-0.1,0.1-0.1,0.3-0.2,0.4c-0.1,0.1-0.2,0.2-0.4,0.3c-0.2,0.1-0.3,0.1-0.5,0.1s-0.4,0-0.6,0s-0.4-0.1-0.5-0.2
			c-0.1-0.1-0.3-0.2-0.3-0.3c-0.1-0.1-0.1-0.3-0.2-0.4c0-0.3,0-0.5,0.1-0.7s0.4-0.4,0.6-0.5c-0.4,0-0.7-0.1-0.9-0.2
			c-0.2-0.2-0.4-0.4-0.4-0.7c0-0.2,0-0.4,0-0.5c0-0.2,0.1-0.3,0.3-0.5c0.1-0.1,0.3-0.3,0.5-0.4c0.2-0.1,0.4-0.2,0.7-0.2
			c0.2,0,0.4,0,0.6,0s0.3,0.1,0.5,0.1c0.1,0.1,0.3,0.2,0.4,0.3s0.2,0.3,0.2,0.4c0,0.1-0.1,0.2-0.1,0.3c-0.1,0-0.1,0.1-0.2,0.1
			s-0.2,0-0.3-0.1c-0.1-0.1-0.2-0.2-0.2-0.4l-0.1-0.5c-0.1,0-0.2,0-0.3,0c-0.3,0.1-0.5,0.2-0.7,0.4c-0.1,0.2-0.2,0.4-0.1,0.8
			c0,0.3,0.2,0.5,0.3,0.6c0.2,0.1,0.4,0.2,0.7,0.1l0.3-0.1l0.1,0.4H324c-0.3,0-0.5,0.2-0.6,0.3c-0.1,0.2-0.1,0.4-0.1,0.7
			s0.1,0.5,0.3,0.6c0.2,0.1,0.3,0.2,0.6,0.1h0.1h0.1L324.2,571.9z"/>
		<path class="st1" d="M315.5,569.7v-0.3l2.7-0.3v0.3l-0.9,0.3c0,0.2,0,0.3,0.1,0.5c0,0.2,0,0.3,0.1,0.5l0.3,2.4l0.6-0.1v0.3
			l-1.4,0.5l-0.1-0.1l-0.1-1l-0.2-2c0-0.2,0-0.3-0.1-0.5c0-0.2,0-0.3-0.1-0.5L315.5,569.7z"/>
		<path class="st1" d="M307.3,573.9c0-0.2,0.1-0.3,0.2-0.4c0.1-0.1,0.2-0.1,0.2-0.1c0.2,0,0.3,0.1,0.4,0.2c0,0.2,0,0.3-0.1,0.5
			s-0.2,0.3-0.3,0.4c-0.1,0.1-0.3,0.2-0.4,0.2c-0.2,0-0.3,0.1-0.5,0.1s-0.5,0-0.6,0c-0.2,0-0.3-0.1-0.5-0.2
			c-0.1-0.1-0.2-0.2-0.3-0.3c-0.1-0.1-0.1-0.3-0.1-0.4c0-0.3,0.1-0.5,0.2-0.7c0.2-0.2,0.4-0.3,0.7-0.4c-0.4,0-0.7-0.2-0.9-0.3
			s-0.3-0.4-0.3-0.8c0-0.2,0-0.4,0.1-0.5s0.2-0.3,0.3-0.4c0.1-0.1,0.3-0.2,0.5-0.3s0.5-0.1,0.7-0.1s0.4,0,0.6,0s0.3,0.1,0.5,0.2
			c0.1,0.1,0.2,0.2,0.3,0.3s0.1,0.3,0.1,0.5c0,0.1-0.1,0.2-0.2,0.2s-0.1,0.1-0.2,0.1s-0.2,0-0.3-0.1c-0.1-0.1-0.2-0.2-0.2-0.4
			l-0.1-0.5c-0.1,0-0.2,0-0.3,0c-0.3,0-0.6,0.1-0.7,0.3c-0.2,0.2-0.2,0.4-0.2,0.8c0,0.3,0.1,0.5,0.2,0.6c0.1,0.2,0.4,0.2,0.7,0.2
			h0.3v0.4h-0.3c-0.3,0-0.5,0.1-0.6,0.2c-0.1,0.1-0.2,0.4-0.2,0.7s0.1,0.5,0.2,0.6s0.3,0.2,0.5,0.2h0.1h0.1L307.3,573.9z"/>
		<path class="st1" d="M298.8,571.3v-0.8h3v0.6l-0.9,1c-0.3,0.3-0.5,0.6-0.7,0.9c-0.1,0.3-0.2,0.6-0.2,0.9c0,0.3,0.1,0.5,0.2,0.7
			s0.3,0.2,0.6,0.2c0,0,0,0,0.1,0h0.1l0.1-0.5c0-0.2,0.1-0.4,0.2-0.5s0.2-0.1,0.3-0.1c0.1,0,0.2,0,0.3,0.1s0.1,0.1,0.2,0.2
			c0,0.2,0,0.4-0.1,0.5s-0.2,0.3-0.3,0.4c-0.1,0.1-0.3,0.2-0.5,0.2s-0.4,0.1-0.6,0.1c-0.3,0-0.5,0-0.7-0.1s-0.3-0.1-0.4-0.3
			c-0.1-0.1-0.2-0.2-0.2-0.4c-0.1-0.1-0.1-0.3-0.1-0.4c0-0.2,0-0.4,0.1-0.5c0.1-0.2,0.2-0.3,0.3-0.5c0.1-0.2,0.3-0.3,0.5-0.5
			s0.4-0.4,0.7-0.6l0.5-0.5L298.8,571.3z"/>
		<path class="st1" d="M290.3,573.9c0-0.2,0.1-0.3,0.2-0.4c0.1-0.1,0.2-0.1,0.3-0.1c0.2,0,0.3,0.1,0.4,0.3c0,0.2-0.1,0.3-0.2,0.5
			c-0.1,0.1-0.2,0.2-0.3,0.3c-0.1,0.1-0.3,0.1-0.4,0.2s-0.3,0-0.5,0s-0.4-0.1-0.6-0.1c-0.2-0.1-0.3-0.2-0.5-0.3s-0.2-0.2-0.3-0.4
			s-0.1-0.3-0.1-0.4c0-0.3,0.1-0.5,0.3-0.7c0.2-0.2,0.4-0.3,0.7-0.4c-0.4-0.1-0.7-0.2-0.8-0.4s-0.3-0.5-0.2-0.8
			c0-0.2,0.1-0.4,0.1-0.5s0.2-0.3,0.3-0.4s0.3-0.2,0.6-0.2c0.2-0.1,0.5-0.1,0.8-0.1c0.2,0,0.4,0,0.6,0.1s0.3,0.1,0.4,0.2
			s0.2,0.2,0.3,0.4c0.1,0.1,0.1,0.3,0.1,0.5c0,0.1-0.1,0.2-0.2,0.2s-0.2,0-0.2,0c-0.1,0-0.2,0-0.3-0.1c-0.1-0.1-0.1-0.2-0.2-0.4
			v-0.5c-0.1,0-0.2,0-0.3,0c-0.3,0-0.6,0.1-0.7,0.2c-0.2,0.2-0.3,0.4-0.3,0.7s0,0.5,0.2,0.7c0.1,0.2,0.4,0.3,0.7,0.3h0.3v0.4h-0.3
			c-0.3,0-0.5,0-0.7,0.2c-0.1,0.1-0.2,0.3-0.2,0.6s0,0.5,0.2,0.6c0.1,0.2,0.3,0.2,0.5,0.2h0.1h0.1L290.3,573.9z"/>
		<path class="st1" d="M283.9,573.5c0.1-0.2,0.1-0.3,0.2-0.4c0.1-0.1,0.2-0.1,0.3-0.1c0.2,0,0.3,0.1,0.4,0.3c0,0.2-0.1,0.3-0.2,0.5
			s-0.2,0.2-0.3,0.3c-0.1,0.1-0.3,0.1-0.4,0.2s-0.3,0-0.5,0s-0.4-0.1-0.6-0.1c-0.2-0.1-0.3-0.2-0.4-0.3s-0.2-0.2-0.2-0.4
			c0-0.1-0.1-0.3-0.1-0.5c0-0.3,0.1-0.5,0.3-0.7s0.4-0.3,0.8-0.3c-0.4-0.1-0.6-0.3-0.8-0.5c-0.2-0.2-0.2-0.5-0.2-0.8
			c0-0.2,0.1-0.3,0.2-0.5s0.2-0.3,0.4-0.4c0.2-0.1,0.3-0.2,0.6-0.2c0.2,0,0.5-0.1,0.8,0c0.2,0,0.4,0.1,0.6,0.1s0.3,0.2,0.4,0.3
			s0.2,0.2,0.3,0.4c0.1,0.1,0.1,0.3,0.1,0.5c-0.1,0.1-0.1,0.2-0.2,0.2s-0.2,0-0.2,0c-0.1,0-0.2-0.1-0.3-0.1
			c-0.1-0.1-0.1-0.2-0.1-0.5V570c-0.1,0-0.2,0-0.3-0.1c-0.3,0-0.6,0-0.7,0.2c-0.2,0.1-0.3,0.4-0.3,0.7s0,0.5,0.1,0.7
			s0.3,0.3,0.7,0.3h0.3v0.4h-0.3c-0.3,0-0.5,0-0.7,0.1c-0.1,0.1-0.2,0.3-0.3,0.6c0,0.3,0,0.5,0.1,0.6c0.1,0.2,0.3,0.2,0.5,0.3h0.1
			h0.1L283.9,573.5z"/>
		<path class="st1" d="M273.3,572.1c0.1-0.2,0.1-0.3,0.2-0.3c0.1-0.1,0.2-0.1,0.3-0.1c0.2,0,0.3,0.1,0.4,0.3c0,0.2-0.1,0.3-0.2,0.5
			c-0.1,0.1-0.2,0.2-0.4,0.3c-0.1,0.1-0.3,0.1-0.5,0.1s-0.3,0-0.5,0s-0.4-0.1-0.6-0.2c-0.2-0.1-0.3-0.2-0.4-0.3s-0.2-0.3-0.2-0.4
			c0-0.1,0-0.3,0-0.5c0-0.3,0.2-0.5,0.4-0.6c0.2-0.1,0.5-0.2,0.8-0.3c-0.4-0.1-0.6-0.3-0.8-0.5s-0.2-0.5-0.2-0.8
			c0-0.2,0.1-0.3,0.2-0.5s0.2-0.3,0.4-0.4s0.4-0.1,0.6-0.2s0.5,0,0.8,0c0.2,0,0.4,0.1,0.6,0.2c0.2,0.1,0.3,0.2,0.4,0.3
			s0.2,0.2,0.2,0.4c0,0.1,0.1,0.3,0,0.5c-0.1,0.1-0.1,0.2-0.2,0.2s-0.2,0-0.2,0c-0.1,0-0.2-0.1-0.3-0.2c-0.1-0.1-0.1-0.2-0.1-0.5
			v-0.5c-0.1,0-0.2-0.1-0.3-0.1c-0.3-0.1-0.6,0-0.8,0.1c-0.2,0.1-0.3,0.4-0.4,0.7c0,0.3,0,0.5,0.1,0.7s0.3,0.3,0.6,0.4l0.3,0.1
			l-0.1,0.4h-0.3c-0.3,0-0.5,0-0.7,0.1s-0.3,0.3-0.3,0.6s0,0.5,0.1,0.6s0.3,0.3,0.5,0.3h0.1h0.1L273.3,572.1z"/>
		<path class="st1" d="M265.3,567.9l0.7,0.1l0.2-1.1l0.8,0.2l-0.2,1.1l1.9,0.4l-0.1,0.5l-2.7,2.4l-0.6-0.1l0.6-2.7l-0.7-0.1
			L265.3,567.9z M266.7,568.9l-0.4,1.8l1.7-1.6L266.7,568.9z"/>
		<path class="st1" d="M256.7,568.4c0.1-0.2,0.2-0.3,0.3-0.3s0.2-0.1,0.3,0c0.2,0,0.3,0.2,0.3,0.4c-0.1,0.2-0.1,0.3-0.3,0.4
			c-0.1,0.1-0.2,0.2-0.4,0.2c-0.1,0.1-0.3,0.1-0.5,0.1s-0.3,0-0.5-0.1c-0.2-0.1-0.4-0.1-0.6-0.3c-0.2-0.1-0.3-0.2-0.4-0.4
			s-0.2-0.3-0.2-0.4c0-0.2,0-0.3,0-0.5c0.1-0.3,0.2-0.5,0.4-0.6s0.5-0.2,0.8-0.2c-0.3-0.2-0.6-0.4-0.7-0.6c-0.1-0.2-0.2-0.5-0.1-0.8
			c0-0.2,0.1-0.3,0.2-0.5s0.3-0.2,0.4-0.3c0.2-0.1,0.4-0.1,0.6-0.1s0.5,0,0.8,0.1c0.2,0.1,0.4,0.1,0.5,0.2c0.2,0.1,0.3,0.2,0.4,0.3
			s0.2,0.3,0.2,0.4c0,0.2,0,0.3,0,0.5c-0.1,0.1-0.2,0.2-0.2,0.2c-0.1,0-0.2,0-0.2,0c-0.1,0-0.2-0.1-0.3-0.2s-0.1-0.2-0.1-0.5
			l0.1-0.5c-0.1,0-0.1-0.1-0.2-0.1c-0.3-0.1-0.6-0.1-0.8,0s-0.3,0.3-0.4,0.6s-0.1,0.5,0,0.7s0.3,0.3,0.6,0.4l0.3,0.1l-0.1,0.4
			l-0.3-0.1c-0.3-0.1-0.5-0.1-0.7,0s-0.3,0.3-0.4,0.6c-0.1,0.3-0.1,0.5,0,0.6c0.1,0.2,0.2,0.3,0.5,0.4h0.1h0.1L256.7,568.4z"/>
		<path class="st1" d="M251,565.7c-0.2,0-0.4-0.1-0.7-0.2c-0.2-0.1-0.4-0.2-0.6-0.3c-0.2-0.1-0.3-0.3-0.4-0.4
			c-0.1-0.2-0.2-0.3-0.2-0.5s0-0.4,0.1-0.6c0.1-0.2,0.2-0.4,0.3-0.6c0.1-0.1,0.3-0.3,0.5-0.3c0.2-0.1,0.4-0.1,0.6-0.1s0.5,0,0.7,0.1
			s0.4,0.2,0.5,0.3s0.3,0.2,0.4,0.4c0.1,0.1,0.2,0.3,0.2,0.4c0,0.1,0,0.3,0,0.4c-0.1,0.1-0.2,0.2-0.2,0.2s-0.2,0-0.3,0
			s-0.2-0.1-0.2-0.2c-0.1-0.1-0.1-0.3,0-0.5l0.1-0.4c-0.1-0.1-0.2-0.2-0.4-0.2c-0.3-0.1-0.5-0.1-0.7,0.1c-0.2,0.2-0.4,0.4-0.5,0.7
			s-0.1,0.5,0,0.7s0.3,0.4,0.5,0.5c0.1,0,0.2,0.1,0.3,0.1s0.2,0,0.4,0.1l0.1,0.2l-0.8,1.9l-2.3-0.8l0.3-0.8l2,0.7L251,565.7z"/>
		<path class="st1" d="M240.6,562.9c0.1-0.2,0.2-0.2,0.3-0.3c0.1,0,0.2,0,0.3,0c0.2,0.1,0.3,0.2,0.3,0.4c-0.1,0.2-0.2,0.3-0.3,0.4
			s-0.3,0.2-0.4,0.2c-0.1,0-0.3,0-0.5,0s-0.3-0.1-0.5-0.1c-0.2-0.1-0.4-0.2-0.6-0.3c-0.1-0.1-0.3-0.3-0.3-0.4
			c-0.1-0.1-0.1-0.3-0.1-0.4s0-0.3,0.1-0.4c0.1-0.3,0.3-0.4,0.5-0.5s0.5-0.1,0.8-0.1c-0.3-0.2-0.5-0.4-0.6-0.7
			c-0.1-0.2-0.1-0.5,0-0.8c0.1-0.2,0.2-0.3,0.3-0.4c0.1-0.1,0.3-0.2,0.5-0.3s0.4-0.1,0.6,0c0.2,0,0.5,0.1,0.7,0.2
			c0.2,0.1,0.4,0.2,0.5,0.3s0.3,0.2,0.3,0.4c0.1,0.1,0.1,0.3,0.1,0.4c0,0.2,0,0.3-0.1,0.5c-0.1,0.1-0.2,0.1-0.3,0.2s-0.2,0-0.2,0
			c-0.1,0-0.2-0.1-0.2-0.2c0-0.1,0-0.3,0-0.5l0.1-0.5c-0.1,0-0.1-0.1-0.2-0.1c-0.3-0.1-0.5-0.1-0.8,0s-0.4,0.3-0.5,0.6
			s-0.1,0.5-0.1,0.7c0.1,0.2,0.2,0.4,0.5,0.5l0.3,0.1l-0.1,0.4l-0.3-0.1c-0.3-0.1-0.5-0.1-0.7,0s-0.3,0.3-0.4,0.5
			c-0.1,0.2-0.1,0.5-0.1,0.6c0.1,0.2,0.2,0.3,0.4,0.4h0.1h0.1L240.6,562.9z"/>
		<path class="st1" d="M232.8,560.1c0.3,0.1,0.6,0.1,0.8,0.1s0.5-0.1,0.7-0.2c0.2-0.1,0.4-0.2,0.5-0.3c0.2-0.1,0.3-0.3,0.4-0.4
			c-0.3,0.1-0.6,0-1-0.1c-0.4-0.2-0.7-0.4-0.8-0.8c-0.1-0.3-0.1-0.7,0.1-1.1c0.1-0.2,0.2-0.4,0.4-0.5s0.3-0.2,0.5-0.3s0.4-0.1,0.6,0
			c0.2,0,0.4,0.1,0.6,0.2c0.2,0.1,0.4,0.2,0.6,0.4c0.1,0.2,0.3,0.4,0.3,0.6s0.1,0.4,0,0.7c0,0.3-0.1,0.5-0.2,0.8
			c-0.1,0.3-0.3,0.5-0.6,0.8s-0.5,0.4-0.8,0.6c-0.3,0.1-0.7,0.2-1.1,0.2c-0.4,0-0.8-0.1-1.2-0.2L232.8,560.1z M235.6,556.9
			c-0.2-0.1-0.3-0.1-0.5,0.1c-0.2,0.1-0.3,0.3-0.5,0.7c-0.2,0.3-0.2,0.6-0.2,0.8s0.2,0.3,0.4,0.4c0.1,0,0.2,0.1,0.3,0.1s0.2,0,0.4,0
			c0.3-0.6,0.4-1,0.4-1.3S235.8,557,235.6,556.9z"/>
		<path class="st1" d="M225.2,555.6c0.1-0.1,0.2-0.2,0.3-0.2s0.2,0,0.3,0c0.2,0.1,0.2,0.2,0.3,0.4c-0.1,0.2-0.2,0.3-0.3,0.4
			c-0.1,0.1-0.3,0.1-0.4,0.1c-0.2,0-0.3,0-0.5,0s-0.3-0.1-0.5-0.2c-0.2-0.1-0.4-0.2-0.5-0.4s-0.2-0.3-0.3-0.4
			c-0.1-0.1-0.1-0.3-0.1-0.4c0-0.2,0.1-0.3,0.1-0.4c0.1-0.2,0.3-0.4,0.6-0.5s0.5-0.1,0.8,0c-0.3-0.2-0.5-0.5-0.6-0.8s0-0.5,0.1-0.8
			c0.1-0.2,0.2-0.3,0.3-0.4s0.3-0.2,0.5-0.2s0.4,0,0.6,0c0.2,0,0.5,0.1,0.7,0.3c0.2,0.1,0.3,0.2,0.5,0.4c0.1,0.1,0.2,0.3,0.3,0.4
			s0.1,0.3,0.1,0.4s0,0.3-0.1,0.5c-0.1,0.1-0.2,0.1-0.3,0.1s-0.2,0-0.2-0.1c-0.1-0.1-0.2-0.1-0.2-0.2c0-0.1,0-0.3,0.1-0.5l0.2-0.5
			c-0.1-0.1-0.1-0.1-0.2-0.1c-0.3-0.2-0.5-0.2-0.8-0.1c-0.2,0.1-0.4,0.2-0.6,0.5c-0.1,0.2-0.2,0.5-0.1,0.7s0.2,0.4,0.5,0.6l0.3,0.2
			l-0.2,0.3l-0.2-0.1c-0.3-0.1-0.5-0.2-0.7-0.1c-0.2,0.1-0.3,0.2-0.5,0.5c-0.1,0.2-0.2,0.4-0.1,0.6s0.2,0.3,0.4,0.4h0.1h0.1
			L225.2,555.6z"/>
		<path class="st1" d="M217.4,552l0.3-0.4l3.4-2.6l0.7,0.5v0.1l-3.4,2.1l1.9,1.2l-0.4,0.7L217.4,552z"/>
		<path class="st1" d="M210.7,546.6c0.1-0.1,0.3-0.2,0.4-0.2c0.1,0,0.2,0,0.3,0.1s0.2,0.3,0.2,0.5c-0.1,0.1-0.2,0.3-0.4,0.3
			c-0.1,0.1-0.3,0.1-0.4,0.1c-0.2,0-0.3,0-0.5-0.1s-0.3-0.1-0.5-0.2c-0.2-0.1-0.4-0.3-0.5-0.4c-0.1-0.2-0.2-0.3-0.2-0.5
			s-0.1-0.3,0-0.5c0-0.1,0.1-0.3,0.2-0.4c0.2-0.2,0.4-0.4,0.6-0.4c0.2,0,0.5,0,0.8,0.1c-0.3-0.3-0.4-0.5-0.5-0.8
			c0-0.3,0-0.5,0.2-0.8c0.1-0.1,0.2-0.3,0.4-0.4s0.3-0.1,0.5-0.1s0.4,0,0.6,0.1s0.4,0.2,0.7,0.4c0.2,0.1,0.3,0.3,0.4,0.4
			s0.2,0.3,0.3,0.4s0.1,0.3,0,0.5c0,0.2-0.1,0.3-0.2,0.4c-0.1,0.1-0.2,0.1-0.3,0.1s-0.2,0-0.2-0.1c-0.1-0.1-0.2-0.2-0.2-0.3
			s0-0.3,0.1-0.5l0.2-0.4c0-0.1-0.1-0.1-0.2-0.2c-0.3-0.2-0.5-0.3-0.7-0.2c-0.2,0-0.4,0.2-0.6,0.5c-0.2,0.2-0.2,0.4-0.2,0.7
			s0.2,0.4,0.4,0.6l0.3,0.2l-0.2,0.3l-0.2-0.2c-0.2-0.2-0.5-0.2-0.7-0.2s-0.4,0.2-0.5,0.4c-0.2,0.2-0.2,0.4-0.2,0.6
			c0,0.2,0.1,0.4,0.3,0.5c0,0,0.1,0,0.1,0.1c0,0,0.1,0,0.1,0.1L210.7,546.6z"/>
		<path class="st1" d="M205.3,541.1c-0.1-0.3-0.2-0.6-0.2-0.9s0.1-0.5,0.2-0.7c0.2-0.3,0.6-0.5,0.9-0.5c0.4,0,0.7,0.1,1.1,0.4
			c0.2,0.1,0.3,0.3,0.5,0.4c0.1,0.2,0.2,0.3,0.3,0.5s0.1,0.3,0,0.5c0,0.2-0.1,0.3-0.2,0.4c-0.2,0.2-0.4,0.4-0.6,0.4
			c-0.2,0.1-0.5,0-0.8,0c0.1,0.3,0.1,0.5,0.1,0.7s-0.1,0.4-0.2,0.6c-0.1,0.2-0.3,0.3-0.4,0.3c-0.2,0.1-0.3,0.1-0.5,0.1
			s-0.3,0-0.5-0.1s-0.3-0.2-0.5-0.3s-0.3-0.2-0.4-0.4c-0.1-0.1-0.2-0.3-0.2-0.4c0-0.1,0-0.3,0-0.4c0-0.1,0.1-0.3,0.2-0.4
			c0.1-0.1,0.3-0.3,0.4-0.3C204.7,541.1,205,541.1,205.3,541.1z M204.7,542.9c0.1,0.1,0.3,0.2,0.5,0.1c0.2,0,0.3-0.1,0.4-0.3
			c0-0.1,0.1-0.1,0.1-0.2c0-0.1,0-0.2,0-0.3s0-0.2-0.1-0.3s-0.1-0.3-0.2-0.5c-0.2,0-0.4,0.1-0.5,0.1c-0.1,0.1-0.2,0.2-0.3,0.3
			c-0.1,0.2-0.2,0.4-0.2,0.5C204.5,542.6,204.6,542.8,204.7,542.9z M207.2,539.7c-0.1-0.1-0.2-0.1-0.3-0.2c-0.1,0-0.2,0-0.3,0
			s-0.2,0.1-0.3,0.1c-0.1,0.1-0.1,0.1-0.2,0.2S206,540,206,540c0,0.1,0,0.2,0,0.3s0.1,0.2,0.1,0.4c0.1,0.1,0.1,0.3,0.2,0.5
			c0.2,0,0.4,0,0.5-0.1s0.3-0.2,0.4-0.4c0.2-0.2,0.2-0.4,0.2-0.6S207.4,539.9,207.2,539.7z"/>
		<path class="st1" d="M197.3,536.1c0.1-0.1,0.3-0.2,0.4-0.2c0.1,0,0.2,0,0.3,0.1s0.2,0.3,0.2,0.5c-0.1,0.1-0.3,0.2-0.4,0.3
			c-0.1,0.1-0.3,0.1-0.4,0.1s-0.3-0.1-0.4-0.1s-0.3-0.2-0.4-0.3c-0.2-0.2-0.3-0.3-0.4-0.5s-0.2-0.3-0.2-0.5s0-0.3,0-0.5
			c0-0.1,0.1-0.3,0.2-0.4c0.2-0.2,0.4-0.3,0.7-0.3c0.2,0,0.5,0,0.8,0.2c-0.2-0.3-0.4-0.6-0.4-0.9c0-0.3,0.1-0.5,0.3-0.8
			c0.1-0.1,0.3-0.2,0.4-0.3c0.2-0.1,0.3-0.1,0.5-0.1s0.4,0.1,0.6,0.2s0.4,0.2,0.6,0.4c0.2,0.1,0.3,0.3,0.4,0.5s0.2,0.3,0.2,0.5
			s0,0.3,0,0.5s-0.1,0.3-0.2,0.4c-0.1,0.1-0.2,0.1-0.3,0.1s-0.1-0.1-0.2-0.1c-0.1-0.1-0.1-0.2-0.2-0.3c0-0.1,0-0.3,0.2-0.4l0.3-0.4
			c0-0.1-0.1-0.1-0.2-0.2c-0.2-0.2-0.5-0.3-0.7-0.3s-0.5,0.1-0.7,0.4c-0.2,0.2-0.3,0.4-0.3,0.6c0,0.2,0.1,0.4,0.3,0.6l0.3,0.2
			l-0.3,0.3l-0.2-0.2c-0.2-0.2-0.4-0.3-0.6-0.3c-0.2,0-0.4,0.1-0.6,0.3c-0.2,0.2-0.3,0.4-0.3,0.6c0,0.2,0.1,0.4,0.3,0.5
			c0,0,0.1,0,0.1,0.1c0,0,0.1,0,0.1,0.1L197.3,536.1z"/>
		<path class="st1" d="M195.4,529.7c-0.3-0.1-0.5-0.2-0.7-0.3s-0.4-0.1-0.6-0.1c-0.2,0-0.4,0-0.6,0.1c-0.2,0.1-0.3,0.2-0.5,0.3
			c0.2,0.1,0.5,0.2,0.7,0.4s0.3,0.3,0.4,0.5c0.1,0.2,0.1,0.3,0.1,0.5s0,0.3-0.1,0.5s-0.2,0.3-0.3,0.5s-0.3,0.3-0.5,0.3
			c-0.2,0.1-0.4,0.1-0.6,0.1c-0.2,0-0.4,0-0.6-0.1c-0.2-0.1-0.4-0.2-0.5-0.3c-0.2-0.2-0.3-0.4-0.4-0.6c-0.1-0.2-0.1-0.4-0.1-0.6
			c0-0.2,0.1-0.4,0.2-0.7c0.1-0.2,0.3-0.4,0.5-0.7c0.3-0.3,0.6-0.5,0.9-0.6c0.3-0.1,0.7-0.2,1-0.2s0.7,0.1,1,0.2
			c0.3,0.1,0.7,0.3,1,0.5L195.4,529.7z M193.2,530.3c-0.1-0.1-0.1-0.1-0.2-0.2c-0.1-0.1-0.2-0.1-0.3-0.1l-0.1,0.1l-0.1,0.1
			c-0.4,0.4-0.6,0.7-0.7,0.9c-0.1,0.3,0,0.5,0.1,0.6s0.3,0.2,0.5,0.1c0.2,0,0.4-0.2,0.7-0.4c0.2-0.3,0.4-0.5,0.4-0.7
			C193.4,530.6,193.3,530.4,193.2,530.3z"/>
		<path class="st1" d="M185.5,520.7l0.5,0.5l0.8-0.7l0.6,0.6l-0.8,0.7l1.3,1.4l-0.4,0.4l-3.6,0.4l-0.4-0.5l2-1.9l-0.5-0.5
			L185.5,520.7z M186.1,522.3l-1.4,1.3l2.3-0.3L186.1,522.3z"/>
		<path class="st1" d="M179.9,519.5c-0.1-0.2-0.2-0.3-0.3-0.5s-0.1-0.4,0-0.7c0-0.2,0.2-0.5,0.3-0.7c0.2-0.3,0.4-0.5,0.7-0.8
			s0.6-0.5,0.9-0.6c0.3-0.1,0.5-0.2,0.8-0.2c0.2,0,0.5,0,0.6,0.1c0.2,0.1,0.3,0.2,0.5,0.4c0.1,0.2,0.2,0.3,0.3,0.5s0.1,0.4,0,0.7
			c0,0.2-0.2,0.5-0.3,0.7c-0.2,0.3-0.4,0.5-0.7,0.8s-0.6,0.5-0.9,0.6c-0.3,0.1-0.5,0.2-0.8,0.2c-0.2,0-0.5,0-0.6-0.1
			C180.2,519.7,180,519.6,179.9,519.5z M182.1,518.5c0.3-0.3,0.6-0.5,0.8-0.7s0.3-0.4,0.4-0.5c0.1-0.1,0.1-0.2,0.1-0.3
			s0-0.2-0.1-0.2c-0.1-0.1-0.1-0.1-0.2-0.1c-0.1,0-0.2,0-0.3,0s-0.3,0.1-0.5,0.3s-0.5,0.4-0.8,0.6c-0.3,0.3-0.6,0.5-0.8,0.7
			s-0.3,0.4-0.4,0.5c-0.1,0.1-0.1,0.2-0.1,0.3s0,0.2,0.1,0.2c0.1,0.1,0.1,0.1,0.2,0.1c0.1,0,0.2,0,0.3,0s0.3-0.1,0.5-0.3
			C181.5,518.9,181.8,518.7,182.1,518.5z"/>
		<path class="st1" d="M175.2,507.6l0.4,0.5l0.9-0.6l0.5,0.7l-0.9,0.6l1.1,1.6l-0.5,0.3h-3.6l-0.4-0.5l2.2-1.6l-0.4-0.5L175.2,507.6
			z M175.5,509.2l-1.5,1.1h2.3L175.5,509.2z"/>
		<path class="st1" d="M172.5,502.2l0.3-0.2l1.5,2.3l-0.3,0.2l-0.6-0.6c-0.1,0.1-0.3,0.2-0.4,0.3c-0.1,0.1-0.3,0.2-0.4,0.3l-2,1.3
			l0.4,0.5l-0.3,0.2l-1.1-1.1v-0.1l0.8-0.5l1.7-1.1c0.1-0.1,0.3-0.2,0.4-0.3c0.1-0.1,0.3-0.2,0.4-0.3L172.5,502.2z"/>
		<path class="st1" d="M166.3,493.4l0.3,0.6l0.9-0.5l0.4,0.7l-0.9,0.5l1,1.7l-0.5,0.3l-3.6-0.4l-0.3-0.6l2.4-1.4l-0.3-0.6
			L166.3,493.4z M166.4,495l-1.6,0.9l2.3,0.3L166.4,495z"/>
		<path class="st1" d="M163.7,487.8l0.7-0.4l1.4,2.7l-0.5,0.3L164,490c-0.4-0.1-0.8-0.2-1.1-0.2s-0.6,0-0.9,0.2
			c-0.2,0.1-0.4,0.3-0.5,0.5s-0.1,0.4,0.1,0.6c0,0,0,0,0,0.1c0,0,0,0,0,0.1l0.5-0.1c0.2-0.1,0.4-0.1,0.5,0c0.1,0,0.2,0.1,0.2,0.2
			s0.1,0.2,0,0.3s0,0.2-0.1,0.2c-0.2,0.1-0.3,0.1-0.5,0.1s-0.3-0.1-0.5-0.1c-0.1-0.1-0.3-0.2-0.4-0.3s-0.2-0.3-0.3-0.5
			s-0.2-0.4-0.2-0.6s0-0.4,0-0.5s0.1-0.3,0.2-0.4c0.1-0.1,0.2-0.2,0.3-0.2c0.2-0.1,0.3-0.1,0.5-0.1s0.4,0,0.6,0.1
			c0.2,0,0.4,0.1,0.7,0.2c0.2,0.1,0.5,0.2,0.9,0.3l0.6,0.2L163.7,487.8z"/>
		<path class="st1" d="M159.1,478.3l0.3,0.6l1-0.4l0.3,0.8l-1,0.4l0.8,1.8l-0.5,0.2l-3.5-0.8l-0.3-0.6l2.5-1.1l-0.3-0.6L159.1,478.3
			z M159,479.9l-1.7,0.7l2.3,0.5L159,479.9z"/>
		<path class="st1" d="M155.1,475.5c0.2,0,0.3,0,0.4,0s0.2,0.1,0.2,0.2c0.1,0.2,0,0.3-0.1,0.5c-0.2,0.1-0.3,0.1-0.5,0
			c-0.2,0-0.3-0.1-0.4-0.2c-0.1-0.1-0.2-0.2-0.3-0.3c-0.1-0.1-0.2-0.3-0.2-0.5c-0.1-0.2-0.1-0.4-0.1-0.6s0-0.4,0.1-0.5
			c0-0.2,0.1-0.3,0.2-0.4c0.1-0.1,0.2-0.2,0.4-0.2c0.3-0.1,0.5-0.1,0.7,0s0.4,0.3,0.6,0.5c-0.1-0.4-0.1-0.7,0.1-0.9
			c0.1-0.2,0.3-0.4,0.6-0.6c0.2-0.1,0.3-0.1,0.5-0.1s0.3,0.1,0.5,0.2s0.3,0.2,0.4,0.4c0.1,0.2,0.3,0.4,0.4,0.7
			c0.1,0.2,0.1,0.4,0.1,0.6s0,0.4,0,0.5s-0.1,0.3-0.2,0.4s-0.2,0.2-0.4,0.3c-0.1,0-0.2,0-0.3-0.1s-0.1-0.1-0.1-0.2s0-0.2,0-0.3
			c0-0.1,0.2-0.2,0.3-0.3l0.4-0.2c0-0.1,0-0.2-0.1-0.3c-0.1-0.3-0.3-0.5-0.5-0.6s-0.5-0.1-0.8,0s-0.4,0.2-0.5,0.4
			c-0.1,0.2-0.1,0.4,0,0.7l0.1,0.3l-0.4,0.1l-0.1-0.3c-0.1-0.3-0.2-0.5-0.4-0.5c-0.2-0.1-0.4-0.1-0.7,0c-0.2,0.1-0.4,0.2-0.5,0.4
			s-0.1,0.4,0,0.6v0.1v0.1L155.1,475.5z"/>
		<path class="st1" d="M153.6,462.5l0.2,0.6l1-0.3l0.2,0.8l-1,0.3l0.6,1.9l-0.5,0.2l-3.4-1.2l-0.2-0.6l2.6-0.8l-0.2-0.6L153.6,462.5
			z M153.3,464.1l-1.8,0.5l2.2,0.8L153.3,464.1z"/>
		<path class="st1" d="M152,456.4l0.2,0.7l1.1-0.3l0.2,0.8l-1.1,0.3l0.5,1.9l-0.5,0.1l-3.3-1.4l-0.2-0.6l2.7-0.7l-0.2-0.7L152,456.4
			z M151.7,458l-1.8,0.5l2.2,0.9L151.7,458z"/>
		<path class="st1" d="M149.9,446.1l0.1,0.7l1.1-0.2l0.2,0.8l-1.1,0.2l0.3,1.9l-0.6,0.1l-3.2-1.6l-0.1-0.6l2.7-0.5l-0.1-0.7
			L149.9,446.1z M149.5,447.7l-1.9,0.3l2.1,1L149.5,447.7z"/>
		<path class="st1" d="M147.7,442.6c-0.1-0.2-0.1-0.4-0.2-0.7c0-0.2,0-0.4,0-0.6s0.1-0.4,0.2-0.6c0.1-0.2,0.2-0.3,0.4-0.4
			s0.4-0.2,0.6-0.2c0.2,0,0.5,0,0.6,0c0.2,0.1,0.4,0.2,0.5,0.3s0.3,0.3,0.4,0.5c0.1,0.2,0.2,0.4,0.2,0.7c0,0.2,0,0.4,0,0.6
			s-0.1,0.3-0.2,0.5s-0.2,0.3-0.3,0.3s-0.2,0.1-0.4,0.2c-0.1,0-0.2-0.1-0.3-0.1c-0.1-0.1-0.1-0.2-0.1-0.3s0-0.2,0.1-0.3
			s0.2-0.2,0.4-0.2l0.4-0.1c0-0.1,0-0.3,0-0.4c0-0.3-0.2-0.5-0.4-0.6s-0.5-0.2-0.8-0.1c-0.3,0-0.5,0.1-0.7,0.3s-0.2,0.4-0.2,0.7
			c0,0.1,0,0.2,0.1,0.3c0,0.1,0.1,0.2,0.1,0.3l-0.1,0.2l-2.1,0.1l-0.3-2.4l0.8-0.1l0.3,2.1L147.7,442.6z"/>
		<path class="st1" d="M148,429.5v0.7l1.1-0.1l0.1,0.8l-1.1,0.1l0.1,1.9h-0.6l-3-1.9v-0.6l2.8-0.2v-0.7L148,429.5z M147.4,431
			l-1.9,0.1l2,1.2L147.4,431z"/>
		<path class="st1" d="M144.6,423.8c0.1,0.3,0.2,0.6,0.3,0.8c0.1,0.2,0.3,0.4,0.5,0.5s0.4,0.3,0.5,0.3s0.4,0.1,0.6,0.2
			c-0.2-0.3-0.3-0.6-0.3-0.9c0-0.4,0.1-0.8,0.3-1s0.6-0.4,1-0.4c0.3,0,0.5,0,0.7,0.1s0.4,0.2,0.5,0.3c0.1,0.1,0.2,0.3,0.3,0.5
			s0.1,0.4,0.1,0.6c0,0.3,0,0.5-0.1,0.7s-0.2,0.4-0.4,0.5s-0.4,0.3-0.6,0.3c-0.2,0.1-0.5,0.1-0.8,0.1s-0.6,0-0.9-0.2
			s-0.6-0.3-0.9-0.5c-0.3-0.2-0.5-0.5-0.7-0.9c-0.2-0.3-0.3-0.8-0.3-1.2L144.6,423.8z M148.7,424.8c0-0.2-0.1-0.3-0.3-0.4
			s-0.4-0.2-0.8-0.1c-0.4,0-0.6,0.1-0.8,0.2s-0.2,0.3-0.2,0.5c0,0.1,0,0.2,0.1,0.3c0,0.1,0.1,0.2,0.2,0.3c0.6,0,1.1-0.1,1.4-0.2
			S148.7,425,148.7,424.8z"/>
		<path class="st1" d="M148,412.7v0.7h1.1v0.8H148l-0.1,1.9h-0.6l-2.8-2.3v-0.7l2.8,0.1v-0.7L148,412.7z M147.3,414.2l-1.9-0.1
			l1.8,1.4L147.3,414.2z"/>
		<path class="st1" d="M145.2,406.7c0,0.3,0.1,0.6,0.2,0.8c0.1,0.2,0.2,0.4,0.4,0.6s0.3,0.3,0.5,0.4s0.4,0.2,0.6,0.2
			c-0.2-0.3-0.3-0.6-0.2-0.9c0-0.4,0.2-0.8,0.4-1c0.3-0.2,0.6-0.3,1-0.3c0.3,0,0.5,0.1,0.6,0.2c0.2,0.1,0.3,0.2,0.4,0.4
			c0.1,0.2,0.2,0.3,0.2,0.5s0.1,0.4,0,0.6c0,0.3-0.1,0.5-0.2,0.7c-0.1,0.2-0.3,0.4-0.4,0.5s-0.4,0.2-0.6,0.3s-0.5,0.1-0.8,0
			c-0.3,0-0.6-0.1-0.9-0.3c-0.3-0.1-0.6-0.3-0.8-0.6c-0.2-0.3-0.4-0.6-0.6-0.9s-0.2-0.8-0.2-1.2L145.2,406.7z M149.2,408.1
			c0-0.2-0.1-0.3-0.2-0.5c-0.2-0.1-0.4-0.2-0.8-0.2c-0.4,0-0.6,0-0.8,0.1s-0.3,0.3-0.3,0.5c0,0.1,0,0.2,0,0.3c0,0.1,0.1,0.2,0.2,0.3
			c0.6,0,1.1,0,1.4-0.1C149,408.5,149.2,408.4,149.2,408.1z"/>
		<path class="st1" d="M149.9,396.1l-0.1,0.7l1.1,0.2l-0.1,0.8l-1.1-0.2l-0.3,1.9l-0.6-0.1l-2.5-2.6l0.1-0.6l2.7,0.4l0.1-0.7
			L149.9,396.1z M148.9,397.5l-1.9-0.3l1.7,1.6L148.9,397.5z"/>
		<path class="st1" d="M147.7,389.4l0.5,0.1l3.6,2.4l-0.2,0.9l-0.1,0.1l-3.1-2.5l-0.4,2.2l-0.8-0.2L147.7,389.4z"/>
		<path class="st1" d="M153.5,379.8l-0.2,0.6l1,0.3l-0.2,0.8l-1-0.3l-0.5,1.9l-0.5-0.1l-2.2-2.8l0.2-0.6l2.7,0.7l0.2-0.6
			L153.5,379.8z M152.5,381l-1.8-0.5l1.5,1.8L152.5,381z"/>
		<path class="st1" d="M153.7,374.4c0.3-0.2,0.5-0.4,0.7-0.5s0.5-0.1,0.7,0c0.4,0.1,0.7,0.4,0.8,0.7s0.1,0.7,0,1.2
			c-0.1,0.2-0.2,0.4-0.3,0.6s-0.2,0.3-0.3,0.4s-0.3,0.2-0.4,0.2c-0.2,0-0.3,0-0.5,0c-0.3-0.1-0.5-0.2-0.6-0.4
			c-0.1-0.2-0.2-0.5-0.3-0.8c-0.2,0.2-0.4,0.3-0.7,0.3c-0.2,0.1-0.4,0-0.7,0c-0.2-0.1-0.3-0.2-0.5-0.3c-0.1-0.1-0.2-0.3-0.3-0.4
			c-0.1-0.2-0.1-0.3-0.1-0.5s0-0.4,0.1-0.5c0.1-0.2,0.1-0.3,0.2-0.5c0.1-0.1,0.2-0.2,0.3-0.3c0.1-0.1,0.3-0.1,0.4-0.2
			c0.1,0,0.3,0,0.4,0c0.2,0.1,0.3,0.2,0.5,0.3S153.6,374,153.7,374.4z M151.9,374.4c-0.1,0.2,0,0.3,0,0.5c0.1,0.2,0.2,0.3,0.4,0.3
			c0.1,0,0.2,0,0.2,0s0.2,0,0.2-0.1c0.1,0,0.2-0.1,0.3-0.2s0.2-0.2,0.4-0.3c-0.1-0.2-0.2-0.3-0.3-0.4s-0.2-0.2-0.4-0.2
			c-0.2-0.1-0.4-0.1-0.6,0S151.9,374.2,151.9,374.4z M155.7,375.6c0-0.1,0.1-0.2,0-0.3c0-0.1,0-0.2-0.1-0.3c0-0.1-0.1-0.1-0.2-0.2
			c-0.1-0.1-0.2-0.1-0.3-0.1s-0.2,0-0.3,0s-0.2,0-0.3,0.1s-0.2,0.1-0.3,0.2s-0.3,0.2-0.4,0.4c0.1,0.2,0.2,0.3,0.3,0.4
			s0.3,0.2,0.5,0.3c0.2,0.1,0.5,0.1,0.6,0C155.5,376,155.6,375.8,155.7,375.6z"/>
		<path class="st1" d="M159,363.9l-0.2,0.6l1,0.4l-0.3,0.8l-1-0.4l-0.7,1.8l-0.5-0.2l-1.9-3.1l0.2-0.6l2.6,1l0.2-0.6L159,363.9z
			 M157.8,365.1l-1.8-0.7l1.2,2L157.8,365.1z"/>
		<path class="st1" d="M161.1,361.1c0-0.3,0.1-0.5,0-0.8c0-0.2-0.1-0.4-0.1-0.6c-0.1-0.2-0.2-0.3-0.3-0.5c-0.1-0.1-0.3-0.3-0.5-0.4
			c0,0.2,0,0.5-0.1,0.8c-0.1,0.2-0.2,0.4-0.3,0.5s-0.3,0.2-0.4,0.3c-0.2,0.1-0.3,0.1-0.5,0.1s-0.4-0.1-0.6-0.1
			c-0.2-0.1-0.4-0.2-0.5-0.4c-0.1-0.1-0.2-0.3-0.3-0.5s-0.1-0.4-0.1-0.6s0.1-0.4,0.1-0.6c0.1-0.2,0.2-0.4,0.4-0.6s0.4-0.3,0.6-0.3
			s0.4-0.1,0.7,0c0.2,0,0.5,0.1,0.8,0.2c0.3,0.2,0.6,0.4,0.9,0.6c0.2,0.3,0.4,0.5,0.5,0.9s0.2,0.7,0.2,1c0,0.4-0.1,0.7-0.2,1.1
			L161.1,361.1z M159.8,359.2c0-0.1,0.1-0.2,0.1-0.3s0-0.2,0-0.3c-0.1,0-0.1-0.1-0.2-0.1s-0.1,0-0.2-0.1c-0.5-0.2-0.8-0.3-1.1-0.3
			s-0.4,0.1-0.5,0.3c-0.1,0.2-0.1,0.3,0,0.5s0.3,0.3,0.6,0.5c0.3,0.1,0.6,0.2,0.8,0.1C159.6,359.6,159.7,359.4,159.8,359.2z"/>
		<path class="st1" d="M163.6,350.2c0.1-0.2,0.1-0.4,0.3-0.6c0.1-0.2,0.2-0.4,0.4-0.5c0.1-0.1,0.3-0.3,0.5-0.3s0.4-0.1,0.6-0.1
			s0.4,0.1,0.6,0.2c0.2,0.1,0.4,0.3,0.5,0.4s0.2,0.3,0.2,0.5s0,0.4,0,0.6s-0.1,0.4-0.2,0.7c-0.1,0.2-0.2,0.3-0.3,0.5
			c-0.1,0.1-0.3,0.2-0.4,0.3c-0.1,0.1-0.3,0.1-0.4,0.1s-0.3,0-0.4-0.1c-0.1-0.1-0.2-0.2-0.2-0.3s0-0.2,0-0.3s0.1-0.2,0.2-0.2
			c0.1,0,0.3,0,0.5,0.1l0.4,0.1c0.1-0.1,0.2-0.2,0.2-0.3c0.1-0.2,0.1-0.5,0-0.7s-0.3-0.4-0.6-0.6c-0.3-0.1-0.5-0.2-0.7-0.1
			c-0.2,0-0.4,0.2-0.5,0.5c-0.1,0.1-0.1,0.2-0.1,0.3c0,0.1-0.1,0.2-0.1,0.3l-0.2,0.1l-1.8-1.1l1.2-2.2l0.7,0.4l-1,1.9L163.6,350.2z"
			/>
		<path class="st1" d="M165.5,343.1c0.1-0.2,0.2-0.3,0.4-0.4s0.4-0.2,0.6-0.2c0.2,0,0.5,0,0.8,0.1s0.6,0.2,1,0.4
			c0.4,0.2,0.6,0.4,0.8,0.7c0.2,0.2,0.4,0.5,0.4,0.7c0.1,0.2,0.1,0.4,0.1,0.7s-0.1,0.4-0.2,0.6c-0.1,0.2-0.2,0.3-0.4,0.4
			s-0.4,0.2-0.6,0.2c-0.2,0-0.5,0-0.8-0.1s-0.6-0.2-1-0.4c-0.4-0.2-0.6-0.4-0.8-0.7c-0.2-0.2-0.4-0.5-0.4-0.7
			c-0.1-0.2-0.1-0.4-0.1-0.6S165.4,343.3,165.5,343.1z M167.2,344.8c0.4,0.2,0.7,0.4,0.9,0.5s0.4,0.2,0.6,0.2c0.1,0,0.3,0,0.3,0
			c0.1,0,0.1-0.1,0.2-0.2c0-0.1,0.1-0.2,0.1-0.2c0-0.1,0-0.2-0.1-0.3c-0.1-0.1-0.2-0.3-0.5-0.4c-0.2-0.2-0.5-0.3-0.9-0.6
			c-0.4-0.2-0.7-0.4-0.9-0.5s-0.4-0.2-0.6-0.2c-0.2,0-0.3,0-0.3,0c-0.1,0-0.1,0.1-0.2,0.2c0,0.1-0.1,0.2-0.1,0.3
			c0,0.1,0,0.2,0.1,0.3c0.1,0.1,0.2,0.3,0.5,0.4S166.8,344.6,167.2,344.8z"/>
		<path class="st1" d="M172.3,335.7c0.1-0.2,0.2-0.4,0.3-0.6s0.3-0.3,0.4-0.5c0.2-0.1,0.3-0.2,0.5-0.3c0.2-0.1,0.4-0.1,0.6,0
			s0.4,0.1,0.6,0.3c0.2,0.1,0.3,0.3,0.4,0.5c0.1,0.2,0.2,0.4,0.2,0.6s0,0.4-0.1,0.6s-0.2,0.4-0.3,0.6s-0.3,0.3-0.4,0.4
			c-0.1,0.1-0.3,0.2-0.4,0.3s-0.3,0.1-0.4,0.1c-0.1,0-0.3-0.1-0.4-0.1c-0.1-0.1-0.1-0.2-0.1-0.3s0-0.2,0.1-0.3s0.1-0.1,0.3-0.2
			s0.3,0,0.5,0.1l0.4,0.2c0.1-0.1,0.2-0.2,0.3-0.3c0.2-0.2,0.2-0.4,0.1-0.7s-0.3-0.5-0.5-0.6c-0.2-0.2-0.5-0.2-0.7-0.2
			s-0.4,0.2-0.6,0.4c-0.1,0.1-0.1,0.2-0.2,0.3c-0.1,0.1-0.1,0.2-0.2,0.3l-0.2,0.1l-1.6-1.3l1.4-2l0.7,0.5l-1.2,1.7L172.3,335.7z"/>
		<path class="st1" d="M179.2,330.3l0.2,0.2l-1.6,2.2l-0.2-0.2l0.4-0.8c-0.1-0.1-0.3-0.2-0.4-0.3c-0.1-0.1-0.3-0.2-0.4-0.3l-2-1.5
			l-0.3,0.5l-0.3-0.2l0.6-1.4h0.1l0.8,0.6l1.6,1.2c0.1,0.1,0.3,0.2,0.4,0.3c0.1,0.1,0.3,0.2,0.4,0.3L179.2,330.3z"/>
		<path class="st1" d="M182.6,322.2c0.1-0.2,0.2-0.4,0.4-0.6c0.1-0.2,0.3-0.3,0.5-0.4s0.4-0.2,0.5-0.2c0.2,0,0.4,0,0.6,0
			c0.2,0.1,0.4,0.2,0.6,0.3c0.2,0.2,0.3,0.3,0.4,0.5c0.1,0.2,0.1,0.4,0.1,0.6s-0.1,0.4-0.1,0.6c-0.1,0.2-0.2,0.4-0.4,0.6
			c-0.1,0.2-0.3,0.3-0.4,0.4c-0.2,0.1-0.3,0.2-0.5,0.2s-0.3,0-0.4,0c-0.1,0-0.3-0.1-0.4-0.2c-0.1-0.1-0.1-0.2-0.1-0.3s0-0.2,0.1-0.3
			c0.1-0.1,0.2-0.1,0.3-0.1s0.3,0,0.5,0.2l0.4,0.2c0.1-0.1,0.2-0.2,0.3-0.3c0.2-0.2,0.2-0.4,0.2-0.7c-0.1-0.2-0.2-0.5-0.5-0.7
			c-0.2-0.2-0.4-0.3-0.7-0.3c-0.2,0-0.4,0.1-0.6,0.3c-0.1,0.1-0.1,0.2-0.2,0.3s-0.1,0.2-0.2,0.3l-0.2,0.1l-1.5-1.5l1.6-1.9l0.6,0.5
			l-1.4,1.6L182.6,322.2z"/>
		<path class="st1" d="M189.8,317.1l0.6,0.6l-2.1,2.2l-0.4-0.4l-0.1-1.4c0-0.5-0.1-0.8-0.2-1.1c-0.1-0.3-0.2-0.5-0.5-0.8
			c-0.2-0.2-0.4-0.3-0.6-0.3c-0.2,0-0.4,0.1-0.6,0.3c0,0,0,0-0.1,0.1s0,0,0,0.1l0.3,0.4c0.1,0.2,0.2,0.3,0.2,0.5
			c0,0.1,0,0.2-0.1,0.3c-0.1,0.1-0.1,0.1-0.2,0.1s-0.2,0-0.3,0c-0.1-0.1-0.2-0.3-0.3-0.4c0-0.2-0.1-0.3,0-0.5c0-0.2,0.1-0.3,0.2-0.5
			c0.1-0.2,0.2-0.3,0.4-0.5s0.3-0.3,0.5-0.4s0.3-0.1,0.5-0.1s0.3,0,0.4,0.1c0.1,0.1,0.2,0.1,0.3,0.2s0.2,0.3,0.3,0.4
			c0.1,0.2,0.1,0.3,0.1,0.5s0,0.4,0,0.7c0,0.3,0,0.6,0,0.9v0.7L189.8,317.1z"/>
		<path class="st1" d="M194.3,310c0.1-0.2,0.3-0.4,0.5-0.5c0.2-0.2,0.3-0.3,0.5-0.4s0.4-0.1,0.6-0.2s0.4,0,0.6,0.1s0.4,0.2,0.5,0.4
			c0.2,0.2,0.3,0.4,0.3,0.6c0.1,0.2,0.1,0.4,0,0.6c0,0.2-0.1,0.4-0.2,0.6s-0.3,0.4-0.4,0.5c-0.2,0.1-0.3,0.3-0.5,0.3
			c-0.2,0.1-0.3,0.1-0.5,0.1s-0.3,0-0.4,0c-0.1,0-0.3-0.1-0.4-0.2c-0.1-0.1-0.1-0.2-0.1-0.3c0-0.1,0.1-0.2,0.1-0.3
			c0.1-0.1,0.2-0.1,0.3-0.1s0.3,0.1,0.4,0.2l0.4,0.3c0.1-0.1,0.3-0.1,0.3-0.2c0.2-0.2,0.3-0.4,0.2-0.6c0-0.3-0.2-0.5-0.4-0.7
			s-0.4-0.3-0.6-0.4c-0.2,0-0.4,0.1-0.7,0.3c-0.1,0.1-0.2,0.2-0.2,0.3c-0.1,0.1-0.2,0.2-0.2,0.3h-0.2l-1.3-1.6l1.8-1.7l0.6,0.6
			l-1.5,1.4L194.3,310z"/>
		<path class="st1" d="M198.5,304.9c0.1,0.2,0.1,0.3,0.1,0.4s-0.1,0.2-0.1,0.2c-0.1,0.1-0.3,0.1-0.5,0.1c-0.1-0.1-0.2-0.3-0.2-0.5
			s0-0.3,0-0.5c0-0.1,0.1-0.3,0.2-0.4c0.1-0.1,0.2-0.3,0.3-0.4c0.2-0.2,0.4-0.3,0.5-0.3c0.2-0.1,0.3-0.1,0.5-0.1s0.3,0,0.4,0.1
			c0.1,0.1,0.3,0.2,0.4,0.3c0.2,0.2,0.3,0.4,0.3,0.7c0,0.2-0.1,0.5-0.3,0.8c0.3-0.2,0.6-0.3,0.9-0.3c0.3,0,0.5,0.2,0.7,0.4
			c0.1,0.1,0.2,0.3,0.2,0.5s0.1,0.3,0,0.5c0,0.2-0.1,0.4-0.2,0.6s-0.3,0.4-0.5,0.6c-0.2,0.1-0.3,0.2-0.5,0.3
			c-0.2,0.1-0.3,0.1-0.5,0.1s-0.3,0-0.5-0.1c-0.1-0.1-0.3-0.2-0.4-0.3c0-0.1-0.1-0.2,0-0.3c0-0.1,0.1-0.1,0.1-0.2
			c0.1-0.1,0.2-0.1,0.3-0.1s0.2,0.1,0.4,0.2l0.4,0.3c0.1,0,0.1-0.1,0.2-0.1c0.2-0.2,0.4-0.4,0.4-0.7s-0.1-0.5-0.3-0.7
			s-0.4-0.3-0.6-0.4c-0.2,0-0.4,0-0.7,0.3l-0.3,0.2l-0.2-0.3l0.2-0.2c0.2-0.2,0.3-0.4,0.4-0.6s-0.1-0.4-0.3-0.6s-0.4-0.3-0.5-0.3
			s-0.4,0-0.5,0.2c0,0,0,0-0.1,0.1c0,0,0,0.1-0.1,0.1L198.5,304.9z"/>
		<path class="st1" d="M207.2,299.1c0.1-0.2,0.3-0.3,0.5-0.5c0.2-0.1,0.4-0.2,0.6-0.3c0.2-0.1,0.4-0.1,0.6-0.1
			c0.2,0,0.4,0.1,0.5,0.2c0.2,0.1,0.3,0.2,0.5,0.4c0.1,0.2,0.2,0.4,0.3,0.6c0,0.2,0,0.4,0,0.6s-0.1,0.4-0.3,0.6s-0.3,0.3-0.5,0.5
			c-0.2,0.1-0.3,0.2-0.5,0.3c-0.2,0.1-0.3,0.1-0.5,0.1s-0.3,0-0.4-0.1c-0.1-0.1-0.2-0.1-0.3-0.3c0-0.1-0.1-0.2,0-0.3
			c0-0.1,0.1-0.2,0.2-0.2c0.1-0.1,0.2-0.1,0.3-0.1s0.2,0.1,0.4,0.3l0.3,0.3c0.1,0,0.3-0.1,0.4-0.2c0.2-0.2,0.3-0.4,0.3-0.6
			c0-0.3-0.1-0.5-0.3-0.8c-0.2-0.2-0.4-0.4-0.6-0.4s-0.4,0-0.7,0.2c-0.1,0.1-0.2,0.1-0.3,0.2s-0.2,0.2-0.2,0.3h-0.2l-1.1-1.8l2-1.5
			l0.5,0.7l-1.7,1.3L207.2,299.1z"/>
		<path class="st1" d="M215.4,295.4l-0.6,0.4l0.6,0.9l-0.7,0.5l-0.6-0.9l-1.6,1.1l-0.3-0.5l0.1-3.6l0.5-0.4l1.5,2.3l0.6-0.4
			L215.4,295.4z M213.7,295.7l-1.1-1.6l-0.1,2.3L213.7,295.7z"/>
		<path class="st1" d="M221.3,289.8c0.2-0.1,0.3-0.3,0.6-0.4c0.2-0.1,0.4-0.2,0.6-0.2c0.2-0.1,0.4-0.1,0.6,0c0.2,0,0.4,0.1,0.5,0.2
			c0.2,0.1,0.3,0.3,0.4,0.5c0.1,0.2,0.2,0.4,0.2,0.6s0,0.4-0.1,0.6s-0.2,0.4-0.3,0.5s-0.3,0.3-0.5,0.4s-0.4,0.2-0.5,0.2
			c-0.2,0-0.3,0.1-0.5,0c-0.2,0-0.3-0.1-0.4-0.1c-0.1-0.1-0.2-0.2-0.3-0.3c0-0.1,0-0.2,0-0.3c0-0.1,0.1-0.2,0.2-0.2
			c0.1-0.1,0.2-0.1,0.3,0c0.1,0,0.2,0.1,0.4,0.3l0.3,0.3c0.1,0,0.3-0.1,0.4-0.1c0.2-0.1,0.4-0.3,0.4-0.6c0-0.3-0.1-0.5-0.2-0.8
			c-0.1-0.3-0.3-0.4-0.5-0.5s-0.4,0-0.7,0.1c-0.1,0.1-0.2,0.1-0.3,0.2s-0.2,0.2-0.3,0.2h-0.2l-0.9-1.9l2.1-1.2l0.4,0.7l-1.8,1.1
			L221.3,289.8z"/>
		<path class="st1" d="M226.9,286.6c0.2-0.1,0.4-0.3,0.6-0.4c0.2-0.1,0.4-0.2,0.6-0.2c0.2,0,0.4,0,0.6,0c0.2,0,0.4,0.1,0.5,0.2
			s0.3,0.3,0.4,0.5c0.1,0.2,0.2,0.4,0.2,0.6s0,0.4-0.1,0.6s-0.2,0.4-0.4,0.5c-0.2,0.2-0.3,0.3-0.6,0.4c-0.2,0.1-0.4,0.2-0.6,0.2
			c-0.2,0-0.4,0-0.5,0s-0.3-0.1-0.4-0.2s-0.2-0.2-0.3-0.3c0-0.1,0-0.2,0-0.3c0-0.1,0.1-0.2,0.2-0.2c0.1-0.1,0.2-0.1,0.3,0
			s0.2,0.1,0.4,0.3l0.3,0.4c0.2,0,0.3-0.1,0.4-0.1c0.2-0.1,0.4-0.3,0.4-0.6c0-0.3,0-0.5-0.2-0.8c-0.1-0.3-0.3-0.4-0.5-0.5
			s-0.4-0.1-0.7,0.1c-0.1,0-0.2,0.1-0.3,0.2s-0.2,0.1-0.3,0.2h-0.2l-0.8-1.9l2.2-1.2l0.4,0.7l-1.9,1L226.9,286.6z"/>
		<path class="st1" d="M236.4,282c0.2-0.1,0.4-0.2,0.6-0.3c0.2-0.1,0.4-0.2,0.6-0.2c0.2,0,0.4,0,0.6,0c0.2,0,0.3,0.1,0.5,0.3
			c0.2,0.1,0.3,0.3,0.4,0.5c0.1,0.2,0.1,0.4,0.1,0.6s-0.1,0.4-0.1,0.6s-0.2,0.3-0.4,0.5c-0.2,0.1-0.4,0.3-0.6,0.4
			c-0.2,0.1-0.4,0.1-0.6,0.2c-0.2,0-0.4,0-0.5,0c-0.2,0-0.3-0.1-0.4-0.2c-0.1-0.1-0.2-0.2-0.3-0.3c0-0.1,0-0.2,0-0.3
			c0-0.1,0.1-0.2,0.2-0.2c0.1,0,0.2,0,0.3,0s0.2,0.2,0.3,0.3l0.2,0.4c0.2,0,0.3,0,0.4-0.1c0.2-0.1,0.4-0.3,0.4-0.5
			c0.1-0.2,0-0.5-0.1-0.8s-0.3-0.5-0.5-0.6s-0.4-0.1-0.7,0c-0.1,0-0.2,0.1-0.3,0.2s-0.2,0.1-0.3,0.2H236l-0.7-2l2.3-1l0.3,0.8
			l-1.9,0.9L236.4,282z"/>
		<path class="st1" d="M243.5,277.4c-0.3,0.2-0.5,0.3-0.6,0.5c-0.2,0.2-0.3,0.4-0.3,0.6c-0.1,0.2-0.1,0.4-0.1,0.6s0,0.4,0,0.6
			c0.2-0.3,0.4-0.5,0.7-0.6c0.4-0.2,0.8-0.2,1.1,0c0.3,0.1,0.5,0.4,0.7,0.8c0.1,0.2,0.1,0.5,0.1,0.7s-0.1,0.4-0.1,0.6
			s-0.2,0.3-0.4,0.5c-0.2,0.1-0.3,0.2-0.6,0.3c-0.2,0.1-0.5,0.1-0.7,0.1s-0.4-0.1-0.6-0.2c-0.2-0.1-0.4-0.3-0.5-0.5
			c-0.2-0.2-0.3-0.4-0.4-0.7c-0.1-0.3-0.2-0.6-0.2-0.9s0.1-0.7,0.2-1c0.1-0.3,0.3-0.6,0.6-0.9s0.6-0.5,1-0.7L243.5,277.4z
			 M244,281.6c0.2-0.1,0.3-0.2,0.3-0.4c0-0.2,0-0.5-0.1-0.8s-0.3-0.6-0.5-0.7s-0.4-0.1-0.6,0c-0.1,0-0.2,0.1-0.3,0.2
			s-0.2,0.2-0.2,0.3c0.2,0.6,0.5,1,0.7,1.2C243.5,281.6,243.7,281.6,244,281.6z"/>
		<path class="st1" d="M252.2,276c0.2-0.1,0.4-0.2,0.6-0.3c0.2-0.1,0.4-0.1,0.6-0.1c0.2,0,0.4,0,0.6,0.1s0.3,0.2,0.5,0.3
			c0.1,0.1,0.2,0.3,0.3,0.6c0.1,0.2,0.1,0.4,0.1,0.6s-0.1,0.4-0.2,0.6c-0.1,0.2-0.3,0.3-0.4,0.4c-0.2,0.1-0.4,0.2-0.6,0.3
			c-0.2,0.1-0.4,0.1-0.6,0.1c-0.2,0-0.4,0-0.5-0.1c-0.2-0.1-0.3-0.1-0.4-0.2s-0.2-0.2-0.2-0.4c0-0.1,0-0.2,0.1-0.3s0.1-0.1,0.2-0.2
			c0.1,0,0.2,0,0.3,0s0.2,0.2,0.3,0.4l0.2,0.4c0.2,0,0.3,0,0.4-0.1c0.3-0.1,0.4-0.2,0.5-0.5c0.1-0.2,0.1-0.5,0-0.8s-0.2-0.5-0.4-0.6
			s-0.4-0.1-0.7,0c-0.1,0-0.2,0.1-0.3,0.1s-0.2,0.1-0.3,0.2l-0.2-0.1l-0.5-2l2.4-0.7l0.2,0.8l-2,0.6L252.2,276z"/>
		<path class="st1" d="M260.1,271.9l0.1,0.5l-0.5,4.3l-0.8,0.2h-0.1l0.9-3.9l-2.2,0.6l-0.2-0.8L260.1,271.9z"/>
		<path class="st1" d="M268.6,271.8c0.2-0.1,0.4-0.2,0.7-0.2c0.2,0,0.4-0.1,0.6,0c0.2,0,0.4,0.1,0.6,0.2s0.3,0.2,0.4,0.4
			c0.1,0.2,0.2,0.4,0.2,0.6s0,0.4,0,0.6c-0.1,0.2-0.1,0.4-0.3,0.5c-0.1,0.2-0.3,0.3-0.5,0.4s-0.4,0.2-0.7,0.2c-0.2,0-0.4,0.1-0.6,0
			c-0.2,0-0.3-0.1-0.5-0.1c-0.1-0.1-0.3-0.2-0.4-0.3c-0.1-0.1-0.2-0.2-0.2-0.4c0-0.1,0-0.2,0.1-0.3c0.1-0.1,0.1-0.1,0.2-0.1
			s0.2,0,0.3,0.1c0.1,0.1,0.2,0.2,0.3,0.4l0.2,0.4c0.2,0,0.3,0,0.4,0c0.3-0.1,0.4-0.2,0.5-0.4c0.1-0.2,0.1-0.5,0.1-0.8
			c-0.1-0.3-0.2-0.5-0.3-0.6s-0.4-0.2-0.7-0.1c-0.1,0-0.2,0-0.3,0.1s-0.2,0.1-0.3,0.1l-0.2-0.1l-0.3-2.1l2.4-0.5l0.2,0.8l-2.1,0.4
			L268.6,271.8z"/>
		<path class="st1" d="M276.3,270.7c0.3,0.1,0.6,0.3,0.8,0.4c0.2,0.2,0.3,0.4,0.3,0.7c0.1,0.4,0,0.7-0.3,1c-0.2,0.3-0.6,0.4-1.1,0.5
			c-0.2,0-0.4,0-0.6,0s-0.4-0.1-0.5-0.1c-0.1-0.1-0.3-0.2-0.4-0.3c-0.1-0.1-0.2-0.3-0.2-0.5c0-0.3,0-0.5,0.1-0.7s0.3-0.4,0.6-0.6
			c-0.3-0.1-0.5-0.3-0.6-0.5s-0.2-0.4-0.3-0.6c0-0.2,0-0.4,0-0.5c0.1-0.2,0.1-0.3,0.3-0.4s0.3-0.2,0.4-0.3c0.2-0.1,0.3-0.1,0.5-0.2
			s0.4,0,0.5,0c0.2,0,0.3,0.1,0.4,0.2s0.2,0.2,0.3,0.3c0.1,0.1,0.1,0.2,0.2,0.4c0,0.2,0,0.4-0.1,0.5
			C276.7,270.3,276.5,270.5,276.3,270.7z M275.4,269.1c-0.2,0-0.3,0.1-0.4,0.2s-0.1,0.3-0.1,0.5c0,0.1,0,0.2,0.1,0.2
			c0,0.1,0.1,0.1,0.2,0.2s0.2,0.1,0.3,0.2c0.1,0.1,0.3,0.1,0.5,0.2c0.1-0.2,0.2-0.3,0.2-0.4s0-0.3,0-0.4c0-0.2-0.1-0.4-0.2-0.5
			C275.8,269.1,275.6,269.1,275.4,269.1z M276,273c0.1,0,0.2-0.1,0.3-0.1s0.2-0.1,0.2-0.2s0.1-0.2,0.1-0.3c0-0.1,0-0.2,0-0.3
			c0-0.1,0-0.2-0.1-0.3s-0.1-0.1-0.2-0.2s-0.2-0.1-0.4-0.2c-0.1-0.1-0.3-0.1-0.6-0.2c-0.1,0.1-0.2,0.3-0.3,0.4c0,0.2-0.1,0.3,0,0.6
			c0,0.3,0.1,0.4,0.3,0.5C275.6,273,275.8,273.1,276,273z"/>
		<path class="st1" d="M285.4,269.4c0.2-0.1,0.4-0.1,0.7-0.1c0.2,0,0.4,0,0.6,0s0.4,0.1,0.5,0.2c0.2,0.1,0.3,0.2,0.4,0.4
			s0.2,0.4,0.2,0.6s0,0.5-0.1,0.6c-0.1,0.2-0.2,0.4-0.3,0.5s-0.3,0.3-0.5,0.3c-0.2,0.1-0.4,0.1-0.7,0.2c-0.2,0-0.4,0-0.6,0
			s-0.3-0.1-0.5-0.2c-0.1-0.1-0.2-0.2-0.3-0.3c-0.1-0.1-0.1-0.3-0.1-0.4s0.1-0.2,0.1-0.3c0.1-0.1,0.2-0.1,0.3-0.1
			c0.1,0,0.2,0,0.3,0.1c0.1,0.1,0.2,0.2,0.2,0.4l0.1,0.4c0.1,0,0.3,0,0.4,0c0.3,0,0.5-0.1,0.6-0.4s0.2-0.5,0.2-0.8s-0.1-0.5-0.3-0.7
			c-0.2-0.2-0.4-0.2-0.7-0.2c-0.1,0-0.2,0-0.3,0c-0.1,0-0.2,0.1-0.3,0.1l-0.2-0.1v-2.1l2.5-0.2l0.1,0.8l-2.1,0.2L285.4,269.4z"/>
		<path class="st1" d="M291.4,271.6c0.3-0.1,0.5-0.2,0.7-0.3s0.4-0.3,0.5-0.4s0.2-0.3,0.3-0.5c0.1-0.2,0.1-0.4,0.2-0.6
			c-0.2,0.1-0.5,0.2-0.7,0.2s-0.4,0-0.6-0.1s-0.3-0.1-0.5-0.2c-0.1-0.1-0.2-0.3-0.3-0.4c-0.1-0.2-0.1-0.4-0.1-0.6s0-0.4,0.1-0.6
			s0.2-0.3,0.3-0.5c0.1-0.1,0.3-0.2,0.5-0.3c0.2-0.1,0.4-0.1,0.6-0.1c0.3,0,0.5,0,0.7,0.1s0.4,0.2,0.5,0.4s0.3,0.4,0.3,0.6
			c0.1,0.2,0.1,0.5,0.1,0.8c0,0.4,0,0.7-0.2,1c-0.1,0.3-0.3,0.6-0.5,0.9s-0.5,0.4-0.8,0.6s-0.7,0.3-1,0.3L291.4,271.6z M292.5,269.6
			c0.1,0,0.2,0,0.3,0c0.1,0,0.2-0.1,0.3-0.1c0-0.1,0-0.1,0-0.2s0-0.1,0-0.2c0-0.5-0.1-0.9-0.2-1.1s-0.3-0.4-0.5-0.3
			c-0.2,0-0.3,0.1-0.4,0.3s-0.2,0.4-0.2,0.8s0.1,0.6,0.2,0.8C292.1,269.5,292.3,269.6,292.5,269.6z"/>
	</g>
</g>
</svg>
